<mxfile host="app.diagrams.net" modified="2023-06-10T14:22:23.073Z" agent="Mozilla/5.0 (Macintosh; Intel Mac OS X 10_15_7) AppleWebKit/537.36 (KHTML, like Gecko) Chrome/113.0.0.0 Safari/537.36" etag="RfJZdIJ1F6RkRRlSvFmL" version="21.3.8" type="github" pages="2">
  <diagram name="初期" id="zgxmgY8dRI3vls8uFI_l">
    <mxGraphModel dx="1546" dy="2011" grid="1" gridSize="10" guides="1" tooltips="1" connect="1" arrows="1" fold="1" page="1" pageScale="1" pageWidth="827" pageHeight="1169" math="0" shadow="0">
      <root>
        <mxCell id="0" />
        <mxCell id="1" parent="0" />
        <mxCell id="_5nZn8_pItn9O-iMVYR9-26" value="" style="group" parent="1" vertex="1" connectable="0">
          <mxGeometry x="260" y="-665" width="180" height="60" as="geometry" />
        </mxCell>
        <mxCell id="_5nZn8_pItn9O-iMVYR9-20" value="" style="strokeColor=#dddddd;shadow=1;strokeWidth=1;rounded=1;absoluteArcSize=1;arcSize=2;movable=1;resizable=1;rotatable=1;deletable=1;editable=1;locked=0;connectable=1;" parent="_5nZn8_pItn9O-iMVYR9-26" vertex="1">
          <mxGeometry width="180" height="60" as="geometry" />
        </mxCell>
        <mxCell id="_5nZn8_pItn9O-iMVYR9-19" value="" style="shape=image;verticalLabelPosition=bottom;labelBackgroundColor=default;verticalAlign=top;aspect=fixed;imageAspect=0;image=https://www.agora.io/en/wp-content/themes/agora-main/images/agora-logo.svg;movable=1;resizable=1;rotatable=1;deletable=1;editable=1;locked=0;connectable=1;" parent="_5nZn8_pItn9O-iMVYR9-26" vertex="1">
          <mxGeometry x="22.5" y="15" width="86.07" height="30" as="geometry" />
        </mxCell>
        <mxCell id="_5nZn8_pItn9O-iMVYR9-17" value="" style="strokeColor=#dddddd;shadow=1;strokeWidth=1;rounded=1;absoluteArcSize=1;arcSize=2;" parent="1" vertex="1">
          <mxGeometry x="260" y="-995" width="181" height="60" as="geometry" />
        </mxCell>
        <mxCell id="_5nZn8_pItn9O-iMVYR9-18" value="&lt;font style=&quot;border-color: var(--border-color);&quot; color=&quot;#000000&quot;&gt;API for Client&lt;br&gt;&lt;/font&gt;Token&lt;br style=&quot;border-color: var(--border-color);&quot;&gt;App Engine" style="editableCssRules=.*;html=1;fontColor=#999999;shape=image;verticalLabelPosition=middle;labelBackgroundColor=#ffffff;verticalAlign=middle;labelPosition=right;align=left;spacingLeft=20;part=1;points=[];imageAspect=0;image=data:image/svg+xml,PHN2ZyB4bWxucz0iaHR0cDovL3d3dy53My5vcmcvMjAwMC9zdmciIHhtbG5zOnY9Imh0dHBzOi8vdmVjdGEuaW8vbmFubyIgd2lkdGg9IjIwIiBoZWlnaHQ9IjE2LjAyMDAwMDQ1Nzc2MzY3MiIgZmlsbC1ydWxlPSJldmVub2RkIiB2aWV3Qm94PSI4Ljk0MDY5NjcxNjMwODU5NGUtOCAwIDIwIDE2LjAyMDAwMDQ1Nzc2MzY3MiI+JiN4YTsJPHN0eWxlIHR5cGU9InRleHQvY3NzIj4mI3hhOwkuc3Qwe2ZpbGw6IzQyODVmNDt9JiN4YTsJLnN0MXtmaWxsOiNhZWNiZmE7fSYjeGE7CS5zdDJ7ZmlsbDojNjY5ZGY2O30mI3hhOwk8L3N0eWxlPiYjeGE7CTxwYXRoIGNsYXNzPSJzdDAiIGQ9Ik0xMi4zIDcuMjZsLTEuMjIgMS4yMkExLjcxIDEuNzEgMCAwIDEgMTAgMTEuNDlhMS43NCAxLjc0IDAgMCAxLTEuMzMtLjY0bC0xLjIyIDEuMjJhMy40MyAzLjQzIDAgMCAwIDUuOTg0LTEuMzgxQTMuNDMgMy40MyAwIDAgMCAxMi4zIDcuMjZ6Ii8+JiN4YTsJPHBhdGggY2xhc3M9InN0MSIgZD0iTTEwIDMuNTJhNi4yNSA2LjI1IDAgMCAwIDAgMTIuNSA2LjI1IDYuMjUgMCAwIDAgMC0xMi41bTAgMTAuNzRhNC40NSA0LjQ1IDAgMCAxLTMuMTU3LTcuNTk3QTQuNDUgNC40NSAwIDAgMSAxNC40NCA5LjgyIDQuNDQgNC40NCAwIDAgMSAxMCAxNC4yNiIvPiYjeGE7CTxwYXRoIGNsYXNzPSJzdDIiIGQ9Ik0xOS42MiA5LjE2bC0yLjU2LS44MWE3LjEgNy4xIDAgMCAxIC4xNyAxLjUzIDcuNjIgNy42MiAwIDAgMS0uMDggMS4wOGgyLjQ3YS40NC40NCAwIDAgMCAuMzgtLjQydi0xYS40NC40NCAwIDAgMC0uMzgtLjQyTTEwIDIuNzhhNy40OCA3LjQ4IDAgMCAxIDEuNS4xNUwxMC41OC4zOGMtLjA3LS4yMi0uMjEtLjM4LS40Mi0uMzhoLS4zOGEuNDUuNDUgMCAwIDAtLjQyLjM4bC0uOCAyLjU0QTcuNjQgNy42NCAwIDAgMSAxMCAyLjc4bS03LjIzIDcuMWE3LjEgNy4xIDAgMCAxIC4xNy0xLjUzbC0yLjU2LjgxYS40NC40NCAwIDAgMC0uMzguNDJ2MWEuNDQuNDQgMCAwIDAgLjM4LjQyaDIuNDdhNy42MiA3LjYyIDAgMCAxLS4wOC0xLjA4Ii8+JiN4YTsJPHBhdGggY2xhc3M9InN0MSIgZD0iTTEwIDcuMjZhMi41IDIuNSAwIDEgMCAwIDUgMi41IDIuNSAwIDEgMCAwLTV6bTAgMy43NWExLjI1IDEuMjUgMCAxIDEgMC0yLjUgMS4yNSAxLjI1IDAgMCAxIDEuMjUgMS4yNUExLjI1IDEuMjUgMCAwIDEgMTAgMTEuMDJ6Ii8+JiN4YTs8L3N2Zz4=;" parent="_5nZn8_pItn9O-iMVYR9-17" vertex="1">
          <mxGeometry width="30" height="24" relative="1" as="geometry">
            <mxPoint x="15" y="18" as="offset" />
          </mxGeometry>
        </mxCell>
        <mxCell id="_5nZn8_pItn9O-iMVYR9-57" value="" style="endArrow=none;html=1;rounded=0;entryX=0;entryY=0.5;entryDx=0;entryDy=0;exitX=1;exitY=0.5;exitDx=0;exitDy=0;" parent="1" source="_5nZn8_pItn9O-iMVYR9-17" target="_5nZn8_pItn9O-iMVYR9-53" edge="1">
          <mxGeometry width="50" height="50" relative="1" as="geometry">
            <mxPoint x="460" y="-895" as="sourcePoint" />
            <mxPoint x="530" y="-965" as="targetPoint" />
          </mxGeometry>
        </mxCell>
        <mxCell id="_5nZn8_pItn9O-iMVYR9-61" value="Ruby on Rails" style="text;html=1;strokeColor=none;fillColor=none;align=left;verticalAlign=middle;whiteSpace=wrap;rounded=0;" parent="1" vertex="1">
          <mxGeometry x="260" y="-1025" width="90" height="30" as="geometry" />
        </mxCell>
        <mxCell id="_5nZn8_pItn9O-iMVYR9-53" value="" style="strokeColor=#dddddd;shadow=1;strokeWidth=1;rounded=1;absoluteArcSize=1;arcSize=2;" parent="1" vertex="1">
          <mxGeometry x="540" y="-995" width="130" height="60" as="geometry" />
        </mxCell>
        <mxCell id="_5nZn8_pItn9O-iMVYR9-54" value="&lt;font color=&quot;#000000&quot;&gt;DB&lt;/font&gt;&lt;br&gt;Cloud SQL" style="editableCssRules=.*;html=1;fontColor=#999999;shape=image;verticalLabelPosition=middle;labelBackgroundColor=#ffffff;verticalAlign=middle;labelPosition=right;align=left;spacingLeft=20;part=1;points=[];imageAspect=0;image=data:image/svg+xml,PHN2ZyB4bWxucz0iaHR0cDovL3d3dy53My5vcmcvMjAwMC9zdmciIHhtbG5zOnY9Imh0dHBzOi8vdmVjdGEuaW8vbmFubyIgd2lkdGg9IjE0LjY1OTk5OTg0NzQxMjExIiBoZWlnaHQ9IjIwIiB2aWV3Qm94PSIwIDAgMTQuNjU5OTk5ODQ3NDEyMTEgMjAiPiYjeGE7CTxzdHlsZSB0eXBlPSJ0ZXh0L2NzcyI+JiN4YTsJLnN0MHtmaWxsOiM0Mjg1ZjQ7fSYjeGE7CS5zdDF7ZmlsbDojNjY5ZGY2O30mI3hhOwkuc3Qye2ZpbGw6I2FlY2JmYTt9JiN4YTsJPC9zdHlsZT4mI3hhOwk8c3R5bGU+JiN4YTsJCS5Ee2ZpbGwtcnVsZTpldmVub2RkfSYjeGE7CTwvc3R5bGU+JiN4YTsJPHBhdGggZD0iTTcuMzMgMTUuMzV2LTMuMDFMMCA4LjQ0djMuMDF6bTAgNC42NXYtMy4wMUwwIDEzLjA5djMuMDF6IiBjbGFzcz0ic3QyIEQiLz4mI3hhOwk8cGF0aCBkPSJNMTQuNjYgOC40NGwtNy4zMyAzLjl2My4wMWw3LjMzLTMuOXptMCA0LjY1bC03LjMzIDMuOVYyMGw3LjMzLTMuOXoiIGNsYXNzPSJzdDEgRCIvPiYjeGE7CTxwYXRoIGQ9Ik03LjMzIDB2My4wMWw3LjMzIDMuOVYzLjl6IiBjbGFzcz0ic3QwIEQiLz4mI3hhOwk8cGF0aCBkPSJNMCA2LjkxbDcuMzMtMy45VjBMMCAzLjl6IiBjbGFzcz0iRCBzdDEiLz4mI3hhOwk8cGF0aCBkPSJNNy4zMyAxMC43OVY3Ljc3TDAgMy44N3YzLjAyeiIgY2xhc3M9IkQgc3QyIi8+JiN4YTsJPHBhdGggZD0iTTE0LjY2IDMuODdsLTcuMzMgMy45djMuMDJsNy4zMy0zLjl6IiBjbGFzcz0iRCBzdDEiLz4mI3hhOzwvc3ZnPg==;" parent="_5nZn8_pItn9O-iMVYR9-53" vertex="1">
          <mxGeometry width="22" height="30" relative="1" as="geometry">
            <mxPoint x="19" y="15" as="offset" />
          </mxGeometry>
        </mxCell>
        <mxCell id="_5nZn8_pItn9O-iMVYR9-67" value="" style="group" parent="1" vertex="1" connectable="0">
          <mxGeometry x="10" y="-840" width="180" height="60" as="geometry" />
        </mxCell>
        <mxCell id="_5nZn8_pItn9O-iMVYR9-68" value="" style="strokeColor=#dddddd;shadow=1;strokeWidth=1;rounded=1;absoluteArcSize=1;arcSize=2;movable=1;resizable=1;rotatable=1;deletable=1;editable=1;locked=0;connectable=1;" parent="_5nZn8_pItn9O-iMVYR9-67" vertex="1">
          <mxGeometry width="180" height="60" as="geometry" />
        </mxCell>
        <mxCell id="_5nZn8_pItn9O-iMVYR9-70" value="" style="shape=image;verticalLabelPosition=bottom;labelBackgroundColor=default;verticalAlign=top;aspect=fixed;imageAspect=0;image=data:image/jpeg,/9j/4AAQSkZJRgABAQAAAQABAAD/2wCEAAoHCBIPEhIPDxASEg8PEhIRDw8PEhQRDw8PGBQZGRgUGSQcIC4zHB44HxgWJzgnKy8/Q0NDGiU9TjszTTE0NTEBDAwMBgYGEAYGEDEdFh0xMTExMTExMTExMTExMTExMTExMTExMTExMTExMTExMTExMTExMTExMTExMTExMTExMf/AABEIANUA7QMBIgACEQEDEQH/xAAcAAADAQADAQEAAAAAAAAAAAAAAQIDBAUGBwj/xABKEAABAgMGBAMFAggKCwAAAAABAAIDETEEIUFRYXEFEpHBBrHhBxOBodEiQiQyUmJzdLKzFBUjMzQ1coKS0xYlQ0VTVXWUlaLw/8QAFAEBAAAAAAAAAAAAAAAAAAAAAP/EABQRAQAAAAAAAAAAAAAAAAAAAAD/2gAMAwEAAhEDEQA/APm6oU+I7qJpg3fEd0FJinxHdRNUDcdx3QCoY7dwpmmDXbuEFIGO3cKZpg127hBSbeyiabT5IGqb2Kiapp8igabex8lE1TT5HyQNU3sfJRNU0+R8kAqbUbhRNU03jcIEqbUbhSm2o3CBJhJMIAoCCgIApJlJBTqncpIdU7lJA3fTyQh308kkHE5jmeqYcZVNRjus5qgbviO6CuY5nqqDjKpqMd1nNMG74jugvmOZ6phxvvNM9Qs5qmmu3cIK5jmeqYcb7zTPUKJpjHbuED5jmeqprjmaZqJqmnyQPmOZ6qmuOZocVnNNp8igrmOZ6qmuOZocdFnNU0+R8kFcxzPVNrjmaHHRZzVNPkfJBXMcz1VNcZi81GKzmqabxuEFBxzPVNrjMXmoxWc1TTeNwgfMcz1TDjmeqkFNqBlxzPVAccz1SKAgZccz1S5jmeqCkgtzjM3mpxS5jmeqTqncpIKc45nDHRHMcz1Sd9PJJBweY5qg4yriO6zVCnxHdBXMc0w4yriO6zVCh3HdBXMc1Qcb78O4UIbjt3CCuY5qmuN9+HcLNUMdu4QVzHNU1xzwWU1TTXZBXMc02vOeBWapp8igrnOabXnPA+SzmtLOx0RxZDa57gDNkNpe4XZNmgOY5ptec8D5LmN4HbXXjh9tIzFjtBH7CT+D2tl77Fa2CRvfZY7BTVqDic5zVNeZjcLEPEyJiYMiMQcirYbxuEFh5zVMcZi/ELIFU03jcIK5jmqa45rMFU2qCuY5phxzUJhBRcc0uY5oKSC3OMzfiUuY5odU7lJA3OOeXkjmOaTv/uiEHXc23QKg67CowGqzVCh3HdA+bboFQdcaVGA1UJih3HdA+bboFQdWlMhmFmqbjt3CCubboEw6tKZDMLOaYx27hBXNt0Cprq0pkFnNcvhdgjWyKyzWZhiRokw1guAGLnH7rRiT9EHH5vmQBcLyaBe48N+za22yUS0SskA3j3rOa0vboy7lxvcQR+SV9C8GeArPw0NjRQ2PbamM5v2IJlSED+LlzVN9AZD2qDx/CfZ3wyzAF1nFpeKvtcos9eWQaPg1ergwWw2hrGNY0Uaxoa0fALVCAQhCDg2/hVntQ5bTZ4UZuUaG18tpi5eL417LrHGm+yPfZYleX+egEzneHGY+DpDJfQkIPzh4i8LWzhh/CYQMImTbTC+1AcSZAEy+ydHAaTXTMdeKVGAX6jjQmxGlj2hzXAhzXAOa4GoINQvlHjb2b+75rVwxhLB9qLYxNxAqXQsx+Z0wag+Z823QKmuvw6BZNcqaUF823QJh23QKJpgoLLr8OgRzbdApNUINHOvNKnAJT26BJ1TuUIKcdsMBklPboEO+nkhB1nNt0CoOuNKjAarNMUO47oK5tugVB1xpUYDVZqhQ7jugrm26BAdWlMhmFCoGu3cIHzbdAmHVpTIZhQmDXbuEG9ks7474cGC0vixXBkNjQOZzjQabmkiV+hfBHhOFwqBy3PtUUA2mOB+M78luTBgPjivJ+x3wyIbDxSM37cYOh2QO+7BnJ8TdxEgch+cvqiAQhCAQhCAQhCAQhCAQhCD5N7T/AAYG8/FLGwACb7bBaBKVTHbl+cP735U/l7XXinQL9TOaCCCAQRIg3gjJfnrx34c/iu2FjBKzR5xbNk1s/twv7pIGzm6oPPc23QJtdt0CiaoILLr8OgRzbdApJQg0c680qcAlzbdApdU7lCDRztsMBkjm26BS76eSSDrObQdFQddQVHdZqhQ7jugrm0HRUHXGlR3WSoUO47oK5tuiYdW4Uy1ChNuO3cIK5tAudwPhzrbaYNkZc60PawuEpsZOb3fBgc74Lrpr6L7FLB723RrSRMWWByt0iRXSB/wsiD+8g+2WWzsgw2QobQ2HCa2HDa2jWNADWj4ALdC6vhvHbNa4logQInNGsb/d2iHyuaWOmRiLxMG8ZIO0QhcTiNuh2WFEtEZ3LCgsdEiOALi1jRMmQvKDloXnR4vsxv8AdW6Rp/q62/5aP9L7N/wrf/422/5aD0SFwLPxKFEjRbO1x99Z+QxGOaWkMeJteJj7TTIiYxBC56AXAs0b37jEb/MtJbCOEUi5z9W1AzvN4LSuq49b+dz7JDMTkhsEXiESA18SLDgOP2YLAwE+8fIj7N4bzOuJYSm+LbKxt0G2thsb/wAutjWNY0fo7gAEHpULzUHxnZXtD2Mtr2OaHNezh9scx7SJhwIh3iWK7qwWxtohiKwPa105CNDfBiCRIM2vAIpiEHLXjPadwb+F8PiRGicWx/hEMymS1o/lG3VmzmMs2tXs1D2BwLXCYIIINCDUIPysHbKg7Za8UsZs1oj2Yz/B40SEJ1LWOLWu+IAPxWDSgvm2RzbKSb00FudeaVKObQKXVO5Qg0c7bDyS5tlLvp5IQdZPQfP6pg3UFRnrqoVCh3HdA56D5/VUDcbhUZ66rNUKHcd0DnoPn9U2mtwprmNVCbTXbuEDnoPmvs/sMs4FmtcWQm+0thk5hkJpH7w9V8WX3D2Gn8AtIytrz8PcQfog+lr5xwuwxOa32+yM5rZY+K20e7Bl/CrI73Ri2c6kNDmzo5rcCV9HXl/BH+8/+rWzyhoO74fbIdqhQ7RBdzQozA9hzaRQjA4EGkiF1fj3+q+Ifqkb9grNn+rrVKlh4hFmPybLxB33dGRDf/bn+WFp49/qviH6pG/YKDvLN+I3+y3yWq8xB8MvLWn+NeJibW3CNBkLv0S3s/h17HteeJcReGOa4siRYJhvkZ8rgIYmDQ3oI8TcMiEw+IWJs7dYg7kZPlba7O6RiWZ51lNpNHAHNTa/FEM2WDaLIPfRra4QrHANzn2gzBa8D8UNk4vOAadF3lttcOzw3x4zgyFCa573mjWgTJXzrh0N9htA45aIAhWO3veHwXAtfwtsUsEO0OE5AvLR7yUpFzayKD3PAOF/wOCGOeYsd7jFtNocAHWi0OlzPIFBcABgGtGC5HF/6NaP0MX9grmLh8X/AKNaP0MX9goOD4M/qzh36jZP3DF3a6TwZ/VnDv1GyfuGLu0AhCEH539pUH3fFrWJCT3Qoja/egMn/wCwcvNNdoPmvW+1hwPFY0vuw4AO/ID5ELx7Sg1JvoPmieg+ak1QgtxvNwqc0T0HzSdU7lJBo46DDPJKeg+aD9PJJB1nNoPn9VQdcbhUZ66rNUKHcd0DnoPn9UwbjcKjPVQqFDuO6Bz0Hz+qbTW4U1zChU3HbuECnoPmvsPsJtc2W6z4tiQYw152uaf3beq+Or2/si4oLNxNjHGTLXDdZzkH3PYT8Wco/tIP0MvM+DWFv8Y8zXN5uKWtzeYEczTyScJ1Gq9MhBxOIWJlphRIEYc0OK3lcKGWBBFCDIgihAK8nxu0xX8M4jYY8322zWV7SWi+1QXNcIVoaB+VyuBAo5rhSRPt11nFLE55ZHgyFps/N7udwiw3S54Djg13K2/Ata6+UiHVQvG1ga1oL7RMNAP4Bbagfolp/pvYPy7R/wBhbv8AKXeWWOIrGxGzk4UNzmmha4YOBBBBoQQuQg8laoLuKWv3T2OHDeHva6JMENt1ubeGS+9CZcTgXSF/KvTWmzsjMfCiND4cRpZEY4Ta9jhItOkit0IPK+G3RbHEdwq0F72Q2mJw+0uBIi2ScvcvdT3jKatkZVXfcWBNnjgCZMGIABUnkK5iEHS+D2FvDrA1wLXNsdla4OBDmuEFoIINCp4vCjx/dwmQCGfwmzxHRjEZJjIFohxCSJz+01hAlO83gVXeIQeX8JcJfZDFa6CIUNzYci4wnR4kYF/O5zochEbIsk9zQ8/a5p3L1CFxOJ25llgRbRE/EgQ3xX58rWlxA1uQfnnx9ahG4pbniRAjCGDrCYyGR1YV0DToPmpiRnRHviPM3xHue85ve4ucepKGoNCb6D5pz0HzUGvxTQaON5uFTmlPQfNJ1TuUkGjjoMM8kT0HzUu+nkhB1kxl80wRI3YjHdZqhQ7jugqYy+aoESN2Ix3WaYodx3QVMZfNNpF92GeoUJtx27hBUxl81cCO6G5sSGSyJDc18Nwq17XBzXfAgFYpjHbuEH6n8NcZZxGyQLZDkPesBe0f7OKLns+DgR0K7dfAPZP4tFgtBslofy2S2OEnOubBtNzWuOTXABpOjTcAV9/QCEIQcZsHkeXN/Ffe9uT5fjDcAA7A5z5KEIBCEIBCEIBCEIBfMfbNx8QoEPhzHfylpIiRwDe2zsdNoOXM8D4Mcve8a4rCsECJao7uWHCbMyq51GtbmSZADVfmjjnF4nELTEtcf8eM+YaDNsNguaxugEhrecUHDBGXzVNIy+ahNqDQkTp80TGSnEpoLcRM3YlExl81LqncoQaOIyyx0SmMvmpd9PJCDrJjI9fRUCJG41GO+izTFDuO6CpjI9fRUCJG41GO+izVCh3HdBUxkevomCL7jTPUaLNUMdu4QOYyPX0VAi+40z1GizVNx27hAGWR6+i+xezD2hCIGcN4g+UQSbZLS83RBQQXk0dg040rLm+OIGOyD9gIXwnwR7UolkDbNxHmj2cSbDtA+1HgiknT/nG/MfnXBfaOGcTgWyGI1mjMiwnUewzE8jkdDeg5yEIQCEIQCEIQC4lvtkOzQ3R472w4UMcz3vMmtH1y3XTeKfGNj4W0iPF5o8pss0KTo7p0JH3W/nOkN6L4V4s8X2ri8RpjEMgMdODZWEmGw4Ocfvvl946yAmUHL8e+M38XjAMDmWKA4+4hEyL3U988flSmAMATmZ+XZKYr19FmFbahBUxkevoqBGR6+ihMILJGR6+iJjI9fRSalCDRxEzWpx9EpjI9fRS6p3KEGjiMjhjpsiYyPX0Uu+nkhB1cxkevoqBEjcajHfRQqFDuO6BzGR6+ioESNxqMd9FmmKHcd0FTGR6+ippF9xpnqNFmqbjt3CBzGR6+ippF9xpnqNFmm3HbuEFTGR6+ibZX3GmfooVNx2QF2R6+i5vCuKR7HE97ZY0SDExdDfIOAwcJScNCCuCm3sfJB9P4L7Y7TDAZbbOy0ASBiwne5iyxJEi1x25V7Gwe1vhcUfyro9nOIiwXOHwMPmX5+Tb2Pkg/SsL2icIeJi3wxo9sRh6OaFnH9pPB2VtzXHKHCjP/AGWGS/Nybex8kH3LiXtisUOYs0C0R3ChcGwIRO5JI/wrw/HPajxG2TZDc2yQnXctnn74tOBe68HVoavCqmVG4QU53MS5xcXOJc5znTc5xvLiTU6pslMXGox9FITZUbhBQlkevoqaRMXHr6LMKm1G6C5jI9fRNpGR6+ihMILJEzcevoiYyPX0Ump3QgtxEzcanH0RMa9fRJ1TuUkGjiMjhjpslMZHr6JO+nkkg627X5JiUjWoy1WaoUO48igq7XoqEpGtRhus1Qodx3QO7X5KmyvrTuFmqbjt3CB3aqmyvrTuFCbcdu4QO7VU2V9aLNU3HZA7tVTZa0Pks1Tex8kDu1VNlrQ+SzVN7HyQO7X5Kmy1ofJQm3sfJBV2qbJTFahQqZUbhAxLVUyUxWoWYVsqNwgLtVTZTFVATbUboLu1TEtVBQEGhlM1qi7VQandNBo6UzWpSu1UuqdyhBo6WuHki7VS76eSSDrLsz0H1VCUjeajAZHVZpih3HkUF3ZnoPqqEpG81GA11WSoUO47oKuzPQfVNsr7zTLUaqE2mu3cIKuzPT1VNlfeaZajVZptx27hBV2Z6eqpsr7zQ4eqhNuOxQO7M9PVU2WZocNN1Cbex8kFXZnp6ptlmaHDTdZqm9j5FBV2Z6eqpsszQ4abrNUzsfJA7sz09VbJTF5qMPVZKmVG4QUJZnp6qmSmLzUYeqzVMqNwgd2Z6eqbZTF5rl6qAqbUboHdmenqmJZnp6qSgILMpm81y9UXZnp6qTU7oQaOlM3mpw9UXZnp6qXVO5SQaOlmcMNN0XZnp6qXfTyQg6tUKHcd0IQJUKHcd0IQJU3HbuEIQCpuO3cIQgSpuOyEIBNvY+SEIBNvY+SEIBNvY+SEIBUyo3CEIEqZUbhCEAE21G6EIGUwhCANUIQgbqncoQhBTvp5JIQg/9k=;" parent="_5nZn8_pItn9O-iMVYR9-67" vertex="1">
          <mxGeometry x="10" y="10" width="44.5" height="40" as="geometry" />
        </mxCell>
        <mxCell id="_5nZn8_pItn9O-iMVYR9-66" value="" style="shape=image;verticalLabelPosition=bottom;labelBackgroundColor=default;verticalAlign=top;aspect=fixed;imageAspect=0;image=data:image/png,iVBORw0KGgoAAAANSUhEUgAAAOEAAADhCAMAAAAJbSJIAAAAw1BMVEUrLjr///+f6vmk8v+j8P+h7fyl9P8pKzclIi8oKDQhGignJjMkIC0fFSQeEiIAABkbCRweIjAiJjMAABwjHSsfFCMXGyuc5fQSFyggIzEACyGT1+UaBRqP0d+Z4O+Ly9mAgYZdgo5+tsO3uLqam5/z8/NCVmFkjZlzdHoKESSsrbBKY25unapplaFERk94rboxOETKy805O0aOj5NmZ25QbXh7sb6Fwc9TVV3h4eLW1tg4RVBYeobCw8V8fYJEWWQPAABzVv/5AAAZgUlEQVR4nMVdiXbiOBY1eJEX7JidsAaSQAgQSAIhFKQz//9VIz3ZYMC2ZEtUvXN6TndNgX3R2zcphZvT8+798fXz4WX9/fahEPp4+16/PHy+Pr7vnm//eOWWX777eXp5a7enrUa5XKkghBRK+N8qlXK50Zq2228vTz+7W77ErRDuHj/fqtNWuRKiSiJUKbem1beHx1vBvAXC3etLo90os7Cd4SzjT7y83gKldIQ/D5V2o5IB3IkqjXbl4Uf2C0lF+Py4rrbus5zd1Vnet6rrR6n6RyJCDC/n4V0eJQYp77VkIfzzX7slA14AstX+74+kN5OD8PWjfS8NHqX79serlHeTgHD32W6IyF4SoUb7QYJyFUb4Z31XvgE8SuW7tTCzCiL8812VJ31xVKl+C2IUQvjnu31bfICxLYZRAOFufePzO2KsrgXkMTfC54e7v4MPMN495PYC8iJ8nd5Ov8RReZrXduRD+Oej9VfxEWp95BPHXAj/q97C/rEIVf/7Swh/yn+XQU9UbuSIPLIjfGn/iwOkhNovN0f4/s8OkFK5/H5bhJ93/+4AKaG7zxsifH5r/GN8hBpvmWxjFoTv079n49OoMs3CqRkQPt0Jv5tl1molR5zR755ugXA9FXwtVLNni+VyflDqlijE6Vo6wucPUR1aUpa6qmm6pqqDX08UYvmDVxg5Ee6Ec0z+UNOKAenGyBZl1UqDM97gQ/gu7Kb5S6MYIa0jLI2oyqdvuBA+CusYew4AdRUTHKXeqYt+p3LHlXPkQfgqDND5BYDq9rBfzZa6Tv59aYtD5ImoOBA+VYVfxe8QUMWZ7yDk2GhAjlHdi1uNKofVYCN8agu/iDUjR6jtTfqfyO9hwPpXTfiLlTbbhWMilABQqX1hRNriyJbWSiVHKmwyFB6ILIQyACpen5xZRO68Lf4DdSxs+DG1WYzKQPgqLoOYbCx3+iCiPM0J/hP14Mj48ipD3aQjFDcTQA4WQ30UOUNng9lUG4prU0IMo5GK8F0OQKWG8ejbCB5zSE61M/OlRJt3qaY/DeFOCoti8ppYrzS7pz+wlzo4b1tkyvj+apoDl4LwWVpFyQbFsjmJnR06qMWNuGtDqlQpbngKwg9p8a4zJNahf/S2u19HJ9yYd1M/ykeVjzwI1xJTTnBmes8sEYxOd67C+WnUk3MlsEo5OV5MRPgkGvBGyYRD1JsT5Hv1TQ/+Y+CPDBpmmBIgThPNYhJCWWo0IH8LB6ap/Y6ugpYprix/Az64Lh5JKSkKNQHhs8wTJGT3tFC5wP9qY6x3Squ+BhCF42FM0wRtk4DwTXZWDbkjQz8GwGqfeuGWDWGGNvDFn1B5y4Lw8wZ5UX/TMTSdkKbP3cAlRT6NpEYSIDbinfBYhJKFMCDHn80Hnc7g61CLxE0UojGR4MHFi2IswkxNdxnIqrl1z62dOdzIg+jY+BV3w9E9L8KXv1p8QVaTQGxKsBnluMpUDMIfGSFhBnL2xD5qWwmi2I6pL8YgvBWPJlJtSEy/cRD3wlGZB+F/f79A6I/AWFoS+PS6EH6F8I+skCkDoRIJr7SRhMRN9aqd4Qrhx78ogTqQjDN+xRM36CrKuET4+vfbSAj5I5Kr6khQNq3LtM0FQun+KCchBHlwCcrmyj+9QPjwr/oQaiT7VuxLkMTyQxrC3U3cNS7ySU5Vm0g4xLtdCsL1vyvUOwdi95sS0jaVdTLCXJYCWY5plgiZpuPkt2ndTvQQkQNfluvbzi3GGcLvbEeIzJrrO/vNYbKYE1pMDpvxyvVcO083AmSJi32qTq3VcHjYzPbI87J/WeU7CeGfDA4pcmx/P1wOmlDzDEnV8H/0B1+Lw97LIFEW2EE4RJrqR3udfplR7Gznh5VfyxR5tP8kIOQ/Qsd1hqOmqumnsD1COMbVjOKhxPdVJdcbz1wlkES9Rw6xttSiX6b2cUxp84M8O8QIQm4pNP3NVlVjwUXIWDGZyzJdG0fFumr0SEzsE9/NIBWpCMIjzNHG52aLqCRGEHIqUtOd9E/w9ICdgDTSTRKeK8sHs2r+eDHAHwFbPySJqYUWVHDQqglfFmUSXe1PXE6MUXV6QshnC1F32NSCx5LWmM52uRhuZmNCM6xz5l+DDm2b6bspX+PY3mbZV8NvKqpEhyIL0lIkFEalzeEwXCxHvaahnZ7XHPp8rmvEJp4QcrkztT2kc+EnLW4nv7Zn14hatyyE/3Ecs2S7nrffLEbLZCa1MLxRMcoHahPsgk28U5UaDPiymu36ymax1cO/rHbGXAmd8mcMQh5F6g/p74nhLWe+bSb8oNiY2bUEgKjU/f06wcPojM7XkBoE6/eoayIfsEquu/nSwycvuAod7WuErxwJRP/LCH7JoZtBtUXIqa/mJynWNaO/PCj4pwofQFw3I6ZJw7HdYYd+jq/Q0Xi9QsgRF3pBar5/4NdqUUIlooS1IzxtO9ljSxd5MOgabR5rZ8zupg8SonVK7Hc9xYkhQg5rH9QejCWvRjsny0aLZnh8WLBGh5J7mV9DpElD7yeEiY6/oDWPTpIIROho9UOE/zHnB/0lrYnNcjnHjrcfha17WNduD3Ysm3uk08ZIbNKw94SNuaoA9/9dIGQeYelAZFDvr/IcoOPPBmHZQjN6Q+wTJTxlksymhKwSVHjUeZopotQ+R/jISl6gFVSJ+laOVIrjb3oBPqKE935y8peyaUo2A3m0CjBjKrrW4xlCpj/jb+EVV9kBOt1DoAWLutE7uOkyRNk0xeFDNnHQdXY2IPRrKMJnlksaJMNmmVnU6W5CfJo6Gvusn7401xihvrUCUZwwHfvqcwThI8sY+gMSni6zplEsf9YL8enzlcvmAGt82XtzRTUomReZkth4jCBkMam1BzWTMRRF7j7UL2pzUeNQ8UoQYKQ39dFswJDFTwGbUoQsJoVoRptna5esKV8BPq058fiixdA3TY1LIBug95gMVT0h/GFpUvhhVSXLETreQteC85tkCPih90ZbpP4g1Lljxp+tnyPCB4a5R6T+pQ8ySCHyAxcLy9/CzqKf0Iq0+Q1SpYytjoDuH44IWUtkoFkySy6zttoaQSiwdHj5MyC/Tz6X+mtSdTRixVGoEiLcsRwa6PHlb3i1/EkQ6hjbVeZGEiqI6Q/zwDtl8lR7FyBkBk4u2Aq2oxS84rhDGdTo/HrZs4rQmclgGPpCTIQQQhGELyyHxutzeRFAljenFlArDrt5qmVU6NNZkJ4zU9VUXgKEzNjXLzKF//js4AB1Y2nmrEH4OpMFa0TVcIhNgyJkiqHikxzYlgMh6oYH2BnX8+b3gQXVVPcOImV1xkRIBFHhcNkUn+lJBQ9e0TyVri44c2JxBO5F+uubnAiJ46bwJNmAb9hc6h+oClV7e5EOJ2rzU1UNGEQOhKSWiBG+MdkJNA1LOVvuyAizYUL1eGrtUidq6DGzx4rQGyBkJ/PrJGhrpmcOSvs+7fntCB0gPE5jsQzVpRxeZJUg3LFL99CJbqQW87yAQ42lJ9xQAZ1uqT8oxMlFjr6G6Q4jZLrdoXJOYXsUDFDqxZmESjz9QdNOyAODwqHcsfOtFJ7Y2Xyoe6X4+44zoBw6QDIGfZh6hMcpoFR+wgiZHk34jYnmwtw3KYfOu1LajRzw24bJPxaPY0cJezUKhyplBN72DERQ1ze8niuDrJmamlLkcs4pYWWqcFVk6FfG840/DIYKcmVSY19rdTkJdkEeOPZcDVTtgvLMg5Aa4WWcierSGWZjy5Fm4iUv3cOAM+YSQ4zwWeEwFqRcBs0uMb+aP1IDEeR5HifBRGZyLGPDSCrf9OJ0p7xzteq5l7NZlJC3BYDqQcbE6+lpxPdODvNtSJjypQ5a7wrb7ybkHOLCC0TnRHT9V8LQcoRA7BMNIh1e5GNS7Hsrr3y9ejCbdRFzolIHADb3snRMQNTtHCcghNH3a36Kp/Kr8smHkGZMz7YEIBPmCPS+Ik/HUKLB0Sb+a6HAkFhjvKTyp/LA12OCIOutRXxTfIIgD52kan5+ApOfNAhNCwwL3r6TB4XDpQGCAXNtfjxEWgMqaj0ZU1kX5GySfRYLFlDovCnKyouy5nxBawyHeBR/r0dnsnInK9Ke9Zvs1NAj5C4woLXyzfuG9BC/3PBBFGCOdCHHa+0THQxnA0fI3ZaJvhUetxSIHmLQCtIFQ6/1MgJ0bLdus8d/aCU4NsqnrcT8NSL0pnxwv543OnZHenSSN+NkpGMPR73OdrFimjIzyS2rTcDDyFAo4McHpXxdB0G0h7RrgaOvJULeoanC+KG6ZB098VriojWkQJsfu/6bk5zf7ZYMt5ozOreczQ568+MeJa3H4DIvIQUN3QRSxjISyLJtKyykF/V9JoDmIbIoijWoRuJRvXeFkH6HjFHFdHLBEKrZuhaQddZxa6RHBjR9edmahBT4db6kevkxRAfNjIyLScAROxGjRh2PsDuAUcxs0p9N1xCiw4LaMqMsQEAUPcTUZCcJEK9S0DboUYPT5Q7pg98eUrL2dCFC1oCXZnpOlJ6SJxnTS4TOWM3Bo9gecvs0wbOhda6ZeZ7Cv2h81xIih+Ap1wiR2YReqIwJdezT8PqllOrQRK9m12b0l4mcYWqmLIZLqRCq44xPxn4pb2wBRDfLqYvslQkI26OqJjXzeK1pPOj9VDOP7ePYgjM+pOTC0q5ejqwT9ZhPANOTEFfFLpPqt+zz3jg+5Izxgew5ZC0gl4EyiiJsoTsxaXpljFr8yBnadENI9pQzjvE58zSEIKgpqkPiFZr74T6Td4hWkekQY5j+2avGAQSOcI7ez/IrZ66NPheSfGAorJmhZTT6zr4ZdkEbE0Yndf0yJexuVS1H7yfk2vjypfCKIEqUv8CAG5tMSUTLhCW0mrrdsz53tf4Mm/vlOE9E0Xrny3kDBcEnPJe6KOosG6PW7NlkclDY+f+rFXZYLEq5El7THV/dAh4BjatN+lhnRnPd2SDiz5kmh4aiMX5sFiMrtZ/5ak+EYK2cGvat1qj2zwyRi6BXIa28xk9tzvqhEhyh3jmaQjsoqs3kJvSBgEO4U6JpBPVDTqcGpDCapXUn9BQ3cvY7RolW1ZltzhwENWCOOr4Sdh6f5Q+8AOJBUun3RLSfNWOYFEtQx+foxVDCbOn5zxpANCay8ya8LU9sgl4MvhIp3Yt7YahdKotyy6MKKQPpcjYp034ajp6o49jcpVZxaXpJHclZRBoS3ZUpQ5VWOfvagppdzOijvaEjiT1LZv4LusxkLFIO+to4BoChtnY5vgpUGtPdh81sfng6EdMrY2l72JvI4XvToblYAxW0C+naRl6SDzYrc/SzMinoL2X3CAeNCvGib1kdLdA3koSRtmDJcNqCHmF2nzdtcEkqLB8bMgaOHGGkBVIZLk2Dt1c/6GlNZJuga0hv8g3Ls0jatu9jrz5z3oJ2yqV4UfUNbW1TFzI4lZpDCRvbj/MW7JmZJav53ww6hI2BIs5cdF5EkhjyzT1RC5zKNZZNhVEviutUmHySsBTrNPfEnF1zOfq8FX9CRy2Mr3zrFk4vZhlyjEVkdo3lfMcWSq6oNqacqjXFWqGD9lJxLo3MH7JcU+8yfZnwajadR8DHmG3r0TlJU6WRGVLWHDAkaAf/c5ltFMH+anyMm/y+ODRXpkQWTs113Rq7o+NsDpjhuIHoNweDr8mKsVfEVAbBZN52lZfNYBghqfcS2eZwOegNvoaI1QhyNsudPo/vkDICabLU2blO1B3SY9S1BXP4Pp5qKWOyDlpqdKG0qo4Ybddn8/ipbFr7bUa3NbEi+tJqS6VR6+e6v4KmoeK9UntTPBXLNe2QphrOdyqk7cUobc7XehlzBkTkH+h76MZ2n72vj07exSqaIL93epW06sDFXozkrCktLpN9OU2dTi8bE5aEmc7XadA5qzjSOCZuPpSuriDLX5paYHtT1oFe7DZJ3k8DJUMcN2xqvjdeqhylMYWEG+EscNZhdVp3KsbFMciBb1S3M9uv/9IOej1xUvZqP03SjiEwTkV12CVcY3lj+Not26Jb/rCYZ+FAsA0rtqcNqpfqAYY3LX8GzZGJAc/VjqGkPVFgKNRJCKkEPBu3q+qKSs4yXPrRHHIvjaCNN7FxDG01P4SQasCzasKyzes9UQkhFLRcRnL5irvkjk6Ru9+eFmPUORt9aN0ubt0X5KQjbS6we1hNGI+K2fUVr2to9jnyizKGvM4JRZa3NBcml16taQnpBJomjuhYOjqTkOyI2ddWiC3oX4+jdjPlwcgCnvAc9eWqzvQBIIMR+9rXc6P15BHz2J17sXsT6b6IqMKKa1dKfeXuoX9cMrSd+QxmpQ+MK1nQucvo4aasCYjdmxjr11xH990iV5wRIcc/LYpSOxPHTu0VIlVKPU4Irvco2IkCE7/7MnZ/6dVWE9ZakdgTii770rTRzE9eNwTnEst5V3JIVU+sHCbsL43bQUuT3f2TAoNm78TxTcfcx08nOP7suE9QV/vzfRK3mgtDjd98Cv5qtFupu00aYUvaQRtr9emQ0bG4VIN1xkk7N7CaMDoJbZVWfb88LunEf22BQcYBsWeTfbw+omX2o1fswnrs2NGSatIe4bhDpP0JGCKOOBHmNuhNGiXURD0chCREBQoJ7UqTULGStZed+a9vX/ctWEmxrQfulbHoOuRVuvBisU9L3gUdK4n0klS1M9zbyobm07QkZ9BjXb5p+r+j40HiaLM5Girn2y+TCJX8YSfYSTFc2atDEGnHfTZln3ecOkX7IKAle4IZDj3NOqZmWCy7NBwYx+26ZD/r8rDy05d2WyV/P4/szSREXyVuuWDaTvZYm2j+Ht8nCMoS6/aBY8Uwlqa3WnQiIDHK5naxWfl1u2ReuJnIMWt1dzbHfz/4y2evcojT6al79WNrieY+iISoZ5I2kw5D1uzdP8j094ueGvnlYAN4bzQfzvaO53t1r173MJn7zWTZ08K/ic1pJxLjN2M7XdLvRoi/38LyJmRtM0nT6EsrzemGAIcr1YlK3mq41aMo6eZs1dCb/U6n1+t0cMitRhZeYysz9N1FM3iV4rwUKw6M+y0S7ijBGmLxNRrNN4kLkIP3hjnMIqdfbtrebD7Q1HMpoFh1/Zwhse4dwHLfkjejr1KP/x1Zd5QkxomWWbPt+B8tSh5sQOLf7GaV6rXZYttUtYQN9oGkqr3F3nPCz9j4VZLWUDPvmRG8K4jqGt4h3eAzJdtfbRajXtFQ1SBXGB4kadbUe8uD4nGGlxx3BQne9+R3mAYjjhCG6Xmr2WGxHG17nT6hTm8wWk42e9fjsphAPPc9Cd7ZFTT45euSIpeBYGFwQY96Xt21a9kut+C7s0vw3jXqPcq49CcHcd67JnZ3Hj3EbJIoi3jvzisU7kX4FIocHGt+L6jkZck5xhL//Ydid1jS4Q8945U67kLTh4JF0Qx3WIrdQwrqNOOMGcwBcKVhkynLPaRid8laOa6JcyHxLNQzm+0uWbH716DblncbKBAdiSsKFbYz3gcsJIqI7hTn3/4djMQJNXZnvdNZ7F7uEp1n5Z3iQSakEIWuPc5+L7fY3eo+nfrlXI/dhYszEnMjPJTnbnUcZeTXNpRPY1tur6m+gBNnjLOlUuUqouBC+NzI/6PS3QDaiKPFnU7fCF2WixoJWoaBsLATCKT8LzgYVs0fy+wvpD37Ita+uktBkYZQSKHSmVFjwYBojmmLUbYVFOeUqEbZCAuP+SEiBD0qjFmMEgVobASE8O4xFUM6wsJrfkZ1aKJVXaY01bp0mEHoZvXqZWImG8LCU/5g0RnTVsXE9m/UXdCZm4VAL2M70RByIhSBaIazGLPYjTslNAiGigTUKBMgG6EYxGLQVGtdZSGd7jD4Pye3PEEehIUnAVlcBU21+tyJdg6jEqkL0zyoyF7XKhsgD8LCa36NatlhG5822tTdmompZnf34fVyWl9kmuiOoWS4EYoYjeOFguSqtcFyMRxO5iQBTP/IGKUW9VkA081EFoSF92p+B64U3ldCCxPa8UpK0p4pIIKommroMyIs7BoCbrg/C/sUoql60u8mEPJWGmmuWnaEhecPgWDK8Wej81tTyfVyQrm18keKs50LIY4XRRIblm0evjr0ullVbW4nmW5EvqZpcjyYH2HhSezidcf2SvvN4bAZk2s5xcaj7jisRA6Ehfep6NXryHJELicPqDLl0zHZERae30TyqLKo8cYrgtkRFgqfd7fYV5qF0F184lcWwsKfe6HyojCV77NwaB6EhcKLgPUXJdSOqy7JRlj4Kf+rYyyXY+qDN0BYKPz3T6QRVa9L2LdCWPjzwb1dShq1Pq6aEG6IEEdU07/LquUpT6QkE2Hh+eFO1P7zU+XuIZMNlIIQxxvr6t/BWKmuOeMIyQixOH63b4+xUv3OJ4AyEBKMNz5HUXzCCDHG9d3tdE75bi2ITwJCrHM+2wJVqmRCjfangPxJRIjp9aPNWFqQme7bH3ntwznJQYiZ9WHakieRlVb7P2H2DEgWQkyP66pAvioCr1Fdc+UJ+UgiQiyRGGRLqGUM3bcwvNzWPY6kIiT081Bp5zzKSqNdecgRPaSTdISYdq8vjXYjU5sqKuNPvLxKUJ1XdAuEhHaPn9/VaavMWn2joEq5Na2+PTzeAh2hWyEE2v08vby129NWo1yuVNDxchj8b5VKudxoTdvtt5enn1uBA7opQkrPu/fH18+Hl/X3G72m4OPte/3y8Pn6+L6TqlPi6f+/xxT5bdHgLAAAAABJRU5ErkJggg==;" parent="_5nZn8_pItn9O-iMVYR9-67" vertex="1">
          <mxGeometry x="80" y="10" width="40" height="40" as="geometry" />
        </mxCell>
        <mxCell id="_5nZn8_pItn9O-iMVYR9-71" value="Client&lt;br&gt;Next.js + Electron&amp;nbsp;" style="text;html=1;strokeColor=none;fillColor=none;align=left;verticalAlign=middle;whiteSpace=wrap;rounded=0;" parent="1" vertex="1">
          <mxGeometry x="10" y="-870" width="100" height="30" as="geometry" />
        </mxCell>
        <mxCell id="_5nZn8_pItn9O-iMVYR9-72" value="" style="endArrow=classic;startArrow=classic;html=1;rounded=0;entryX=0;entryY=0.5;entryDx=0;entryDy=0;exitX=1;exitY=0.5;exitDx=0;exitDy=0;" parent="1" source="_5nZn8_pItn9O-iMVYR9-68" target="_5nZn8_pItn9O-iMVYR9-17" edge="1">
          <mxGeometry width="50" height="50" relative="1" as="geometry">
            <mxPoint x="170" y="-900" as="sourcePoint" />
            <mxPoint x="220" y="-950" as="targetPoint" />
          </mxGeometry>
        </mxCell>
        <mxCell id="_5nZn8_pItn9O-iMVYR9-73" value="JSON(JWT)" style="text;html=1;strokeColor=none;fillColor=none;align=center;verticalAlign=middle;whiteSpace=wrap;rounded=0;" parent="1" vertex="1">
          <mxGeometry x="160" y="-935" width="90" height="30" as="geometry" />
        </mxCell>
        <mxCell id="_5nZn8_pItn9O-iMVYR9-76" value="" style="endArrow=classic;startArrow=classic;html=1;rounded=0;entryX=0;entryY=0.5;entryDx=0;entryDy=0;" parent="1" target="_5nZn8_pItn9O-iMVYR9-20" edge="1">
          <mxGeometry width="50" height="50" relative="1" as="geometry">
            <mxPoint x="190" y="-810" as="sourcePoint" />
            <mxPoint x="264" y="-731" as="targetPoint" />
          </mxGeometry>
        </mxCell>
        <mxCell id="_5nZn8_pItn9O-iMVYR9-78" value="Token - WorkspaceID" style="text;html=1;strokeColor=none;fillColor=none;align=left;verticalAlign=middle;whiteSpace=wrap;rounded=0;" parent="1" vertex="1">
          <mxGeometry x="540" y="-1025" width="150" height="30" as="geometry" />
        </mxCell>
        <mxCell id="_5nZn8_pItn9O-iMVYR9-80" value="TOKEN付けて通信するだけ" style="text;html=1;strokeColor=none;fillColor=none;align=left;verticalAlign=middle;whiteSpace=wrap;rounded=0;" parent="1" vertex="1">
          <mxGeometry x="80" y="-890" width="90" height="30" as="geometry" />
        </mxCell>
      </root>
    </mxGraphModel>
  </diagram>
  <diagram name="将来" id="Hv0IVHoQSe6rRo3t464q">
    <mxGraphModel dx="1546" dy="2011" grid="1" gridSize="10" guides="1" tooltips="1" connect="1" arrows="1" fold="1" page="1" pageScale="1" pageWidth="827" pageHeight="1169" math="0" shadow="0">
      <root>
        <mxCell id="QSI5xPWRK80PQD5p4qfQ-0" />
        <mxCell id="QSI5xPWRK80PQD5p4qfQ-1" parent="QSI5xPWRK80PQD5p4qfQ-0" />
        <mxCell id="QSI5xPWRK80PQD5p4qfQ-2" value="" style="group" parent="QSI5xPWRK80PQD5p4qfQ-1" vertex="1" connectable="0">
          <mxGeometry x="260" y="-665" width="180" height="60" as="geometry" />
        </mxCell>
        <mxCell id="QSI5xPWRK80PQD5p4qfQ-3" value="" style="strokeColor=#dddddd;shadow=1;strokeWidth=1;rounded=1;absoluteArcSize=1;arcSize=2;movable=1;resizable=1;rotatable=1;deletable=1;editable=1;locked=0;connectable=1;" parent="QSI5xPWRK80PQD5p4qfQ-2" vertex="1">
          <mxGeometry width="180" height="60" as="geometry" />
        </mxCell>
        <mxCell id="QSI5xPWRK80PQD5p4qfQ-4" value="" style="shape=image;verticalLabelPosition=bottom;labelBackgroundColor=default;verticalAlign=top;aspect=fixed;imageAspect=0;image=https://www.agora.io/en/wp-content/themes/agora-main/images/agora-logo.svg;movable=1;resizable=1;rotatable=1;deletable=1;editable=1;locked=0;connectable=1;" parent="QSI5xPWRK80PQD5p4qfQ-2" vertex="1">
          <mxGeometry x="22.5" y="15" width="86.07" height="30" as="geometry" />
        </mxCell>
        <mxCell id="QSI5xPWRK80PQD5p4qfQ-5" value="" style="strokeColor=#dddddd;shadow=1;strokeWidth=1;rounded=1;absoluteArcSize=1;arcSize=2;" parent="QSI5xPWRK80PQD5p4qfQ-1" vertex="1">
          <mxGeometry x="260" y="-995" width="181" height="60" as="geometry" />
        </mxCell>
        <mxCell id="QSI5xPWRK80PQD5p4qfQ-6" value="&lt;font style=&quot;border-color: var(--border-color);&quot; color=&quot;#000000&quot;&gt;API for Client&lt;br&gt;&lt;/font&gt;Token&lt;br style=&quot;border-color: var(--border-color);&quot;&gt;App Engine" style="editableCssRules=.*;html=1;fontColor=#999999;shape=image;verticalLabelPosition=middle;labelBackgroundColor=#ffffff;verticalAlign=middle;labelPosition=right;align=left;spacingLeft=20;part=1;points=[];imageAspect=0;image=data:image/svg+xml,PHN2ZyB4bWxucz0iaHR0cDovL3d3dy53My5vcmcvMjAwMC9zdmciIHhtbG5zOnY9Imh0dHBzOi8vdmVjdGEuaW8vbmFubyIgd2lkdGg9IjIwIiBoZWlnaHQ9IjE2LjAyMDAwMDQ1Nzc2MzY3MiIgZmlsbC1ydWxlPSJldmVub2RkIiB2aWV3Qm94PSI4Ljk0MDY5NjcxNjMwODU5NGUtOCAwIDIwIDE2LjAyMDAwMDQ1Nzc2MzY3MiI+JiN4YTsJPHN0eWxlIHR5cGU9InRleHQvY3NzIj4mI3hhOwkuc3Qwe2ZpbGw6IzQyODVmNDt9JiN4YTsJLnN0MXtmaWxsOiNhZWNiZmE7fSYjeGE7CS5zdDJ7ZmlsbDojNjY5ZGY2O30mI3hhOwk8L3N0eWxlPiYjeGE7CTxwYXRoIGNsYXNzPSJzdDAiIGQ9Ik0xMi4zIDcuMjZsLTEuMjIgMS4yMkExLjcxIDEuNzEgMCAwIDEgMTAgMTEuNDlhMS43NCAxLjc0IDAgMCAxLTEuMzMtLjY0bC0xLjIyIDEuMjJhMy40MyAzLjQzIDAgMCAwIDUuOTg0LTEuMzgxQTMuNDMgMy40MyAwIDAgMCAxMi4zIDcuMjZ6Ii8+JiN4YTsJPHBhdGggY2xhc3M9InN0MSIgZD0iTTEwIDMuNTJhNi4yNSA2LjI1IDAgMCAwIDAgMTIuNSA2LjI1IDYuMjUgMCAwIDAgMC0xMi41bTAgMTAuNzRhNC40NSA0LjQ1IDAgMCAxLTMuMTU3LTcuNTk3QTQuNDUgNC40NSAwIDAgMSAxNC40NCA5LjgyIDQuNDQgNC40NCAwIDAgMSAxMCAxNC4yNiIvPiYjeGE7CTxwYXRoIGNsYXNzPSJzdDIiIGQ9Ik0xOS42MiA5LjE2bC0yLjU2LS44MWE3LjEgNy4xIDAgMCAxIC4xNyAxLjUzIDcuNjIgNy42MiAwIDAgMS0uMDggMS4wOGgyLjQ3YS40NC40NCAwIDAgMCAuMzgtLjQydi0xYS40NC40NCAwIDAgMC0uMzgtLjQyTTEwIDIuNzhhNy40OCA3LjQ4IDAgMCAxIDEuNS4xNUwxMC41OC4zOGMtLjA3LS4yMi0uMjEtLjM4LS40Mi0uMzhoLS4zOGEuNDUuNDUgMCAwIDAtLjQyLjM4bC0uOCAyLjU0QTcuNjQgNy42NCAwIDAgMSAxMCAyLjc4bS03LjIzIDcuMWE3LjEgNy4xIDAgMCAxIC4xNy0xLjUzbC0yLjU2LjgxYS40NC40NCAwIDAgMC0uMzguNDJ2MWEuNDQuNDQgMCAwIDAgLjM4LjQyaDIuNDdhNy42MiA3LjYyIDAgMCAxLS4wOC0xLjA4Ii8+JiN4YTsJPHBhdGggY2xhc3M9InN0MSIgZD0iTTEwIDcuMjZhMi41IDIuNSAwIDEgMCAwIDUgMi41IDIuNSAwIDEgMCAwLTV6bTAgMy43NWExLjI1IDEuMjUgMCAxIDEgMC0yLjUgMS4yNSAxLjI1IDAgMCAxIDEuMjUgMS4yNUExLjI1IDEuMjUgMCAwIDEgMTAgMTEuMDJ6Ii8+JiN4YTs8L3N2Zz4=;" parent="QSI5xPWRK80PQD5p4qfQ-5" vertex="1">
          <mxGeometry width="30" height="24" relative="1" as="geometry">
            <mxPoint x="15" y="18" as="offset" />
          </mxGeometry>
        </mxCell>
        <mxCell id="QSI5xPWRK80PQD5p4qfQ-7" value="" style="strokeColor=#dddddd;shadow=1;strokeWidth=1;rounded=1;absoluteArcSize=1;arcSize=2;" parent="QSI5xPWRK80PQD5p4qfQ-1" vertex="1">
          <mxGeometry x="260" y="-865" width="180" height="60" as="geometry" />
        </mxCell>
        <mxCell id="QSI5xPWRK80PQD5p4qfQ-8" value="&lt;font color=&quot;#000000&quot;&gt;Token&lt;/font&gt;&lt;br&gt;Cloud Functions" style="editableCssRules=.*;html=1;fontColor=#999999;shape=image;verticalLabelPosition=middle;labelBackgroundColor=#ffffff;verticalAlign=middle;labelPosition=right;align=left;spacingLeft=20;part=1;points=[];imageAspect=0;image=data:image/svg+xml,PHN2ZyB4bWxucz0iaHR0cDovL3d3dy53My5vcmcvMjAwMC9zdmciIHhtbG5zOnY9Imh0dHBzOi8vdmVjdGEuaW8vbmFubyIgd2lkdGg9IjIwIiBoZWlnaHQ9IjE5Ljk4OTk5OTc3MTExODE2NCIgdmlld0JveD0iMCAwIDIwIDE5Ljk4OTk5OTc3MTExODE2NCI+JiN4YTsJPHN0eWxlIHR5cGU9InRleHQvY3NzIj4mI3hhOwkuc3Qwe2ZpbGw6IzQyODVmNDt9JiN4YTsJLnN0MXtmaWxsOiM2NjlkZjY7fSYjeGE7CS5zdDJ7ZmlsbDojYWVjYmZhO30mI3hhOwk8L3N0eWxlPiYjeGE7CTxwYXRoIGNsYXNzPSJzdDEiIGQ9Ik0zIDMuOTlMMCA2LjQydjcuMTNsMyAyLjQ0eiIvPiYjeGE7CTxwYXRoIGNsYXNzPSJzdDAiIGQ9Ik0zIDMuOTlsLTMgNCAzLTJ6bS0zIDhsMyA0di0yeiIvPiYjeGE7CTxwYXRoIGNsYXNzPSJzdDIiIGQ9Ik0wIDE1Ljk5bDQgNCAyLTItNi02em0uMDEtOEw1Ljk5IDJsLTItMkwwIDMuOTl6Ii8+JiN4YTsJPHBhdGggY2xhc3M9InN0MSIgZD0iTTE3IDE2bDMtMi40MlY2LjQ0TDE3IDR6Ii8+JiN4YTsJPHBhdGggY2xhc3M9InN0MCIgZD0iTTE3IDE2bDMtNC0zIDJ6bTMtOGwtMy00djJ6Ii8+JiN4YTsJPGcgY2xhc3M9InN0MiI+JiN4YTsJCTxwYXRoIGQ9Ik0yMCA0bC00LTQtMiAyIDYgNnptLS4wMSA4bC01Ljk4IDUuOTkgMiAyTDIwIDE2eiIvPiYjeGE7CQk8Y2lyY2xlIGN4PSI2IiBjeT0iOS45OSIgcj0iMSIvPiYjeGE7CQk8Y2lyY2xlIGN4PSIxMCIgY3k9IjkuOTkiIHI9IjEiLz4mI3hhOwkJPGNpcmNsZSBjeD0iMTMuOTkiIGN5PSI5Ljk5IiByPSIxIi8+JiN4YTsJPC9nPiYjeGE7PC9zdmc+;" parent="QSI5xPWRK80PQD5p4qfQ-7" vertex="1">
          <mxGeometry width="30" height="24" relative="1" as="geometry">
            <mxPoint x="15" y="18" as="offset" />
          </mxGeometry>
        </mxCell>
        <mxCell id="QSI5xPWRK80PQD5p4qfQ-9" value="" style="strokeColor=#dddddd;shadow=1;strokeWidth=1;rounded=1;absoluteArcSize=1;arcSize=2;" parent="QSI5xPWRK80PQD5p4qfQ-1" vertex="1">
          <mxGeometry x="260" y="-765" width="180" height="60" as="geometry" />
        </mxCell>
        <mxCell id="QSI5xPWRK80PQD5p4qfQ-10" value="Identity Platform" style="editableCssRules=.*;html=1;fontColor=#999999;shape=image;verticalLabelPosition=middle;labelBackgroundColor=#ffffff;verticalAlign=middle;labelPosition=right;align=left;spacingLeft=20;part=1;points=[];imageAspect=0;image=data:image/svg+xml,PHN2ZyB4bWxucz0iaHR0cDovL3d3dy53My5vcmcvMjAwMC9zdmciIHhtbG5zOnY9Imh0dHBzOi8vdmVjdGEuaW8vbmFubyIgd2lkdGg9IjE2LjQyMDAwMDA3NjI5Mzk0NSIgaGVpZ2h0PSIyMC4wNDk5OTkyMzcwNjA1NDciIGZpbGwtcnVsZT0iZXZlbm9kZCIgdmlld0JveD0iMCAwIDE2LjQyMDAwMDA3NjI5Mzk0NSAyMC4wNDk5OTkyMzcwNjA1NDciPiYjeGE7CTxzdHlsZSB0eXBlPSJ0ZXh0L2NzcyI+JiN4YTsJLnN0MHtmaWxsOiM0Mjg1ZjQ7fSYjeGE7CS5zdDF7ZmlsbDojNjY5ZGY2O30mI3hhOwk8L3N0eWxlPiYjeGE7CTxwYXRoIGNsYXNzPSJzdDEiIGQ9Ik04LjIxIDBMMCAzLjQydjUuNjNjMCA1LjA2IDMuNSA5LjggOC4yMSAxMSA0LjcxLTEuMTUgOC4yMS01Ljg5IDguMjEtMTAuOTVWMy40MnptMCAzLjc5YTIuNjMgMi42MyAwIDAgMSAxLjAwNSA1LjA2QTIuNjMgMi42MyAwIDAgMSA2LjM1IDQuNTZhMi42MyAyLjYzIDAgMCAxIDEuODYtLjc3em00LjExIDExLjE1YTguNjQgOC42NCAwIDAgMS00LjExIDIuOTMgOC42NCA4LjY0IDAgMCAxLTQuMTEtMi45M3YtMi4yNWMwLTEuNjcgMi43NC0yLjUyIDQuMTEtMi41MnM0LjExLjg1IDQuMTEgMi41MnoiLz4mI3hhOwk8cGF0aCBjbGFzcz0ic3QwIiBkPSJNOC4yMSAwdjMuNzlhMi42MyAyLjYzIDAgMSAxIDAgNS4yNnYxLjEyYzEuMzcgMCA0LjExLjg1IDQuMTEgMi41MnYyLjI1YTguNjQgOC42NCAwIDAgMS00LjExIDIuOTNWMjBjNC43MS0xLjE1IDguMjEtNS44OSA4LjIxLTEwLjk1VjMuNDJ6Ii8+JiN4YTs8L3N2Zz4=;" parent="QSI5xPWRK80PQD5p4qfQ-9" vertex="1">
          <mxGeometry width="24" height="30" relative="1" as="geometry">
            <mxPoint x="18" y="15" as="offset" />
          </mxGeometry>
        </mxCell>
        <mxCell id="QSI5xPWRK80PQD5p4qfQ-11" value="" style="endArrow=none;html=1;rounded=0;entryX=0;entryY=0.5;entryDx=0;entryDy=0;exitX=1;exitY=0.5;exitDx=0;exitDy=0;" parent="QSI5xPWRK80PQD5p4qfQ-1" source="QSI5xPWRK80PQD5p4qfQ-5" target="QSI5xPWRK80PQD5p4qfQ-13" edge="1">
          <mxGeometry width="50" height="50" relative="1" as="geometry">
            <mxPoint x="460" y="-895" as="sourcePoint" />
            <mxPoint x="530" y="-965" as="targetPoint" />
          </mxGeometry>
        </mxCell>
        <mxCell id="QSI5xPWRK80PQD5p4qfQ-12" value="Ruby on Rails" style="text;html=1;strokeColor=none;fillColor=none;align=left;verticalAlign=middle;whiteSpace=wrap;rounded=0;" parent="QSI5xPWRK80PQD5p4qfQ-1" vertex="1">
          <mxGeometry x="260" y="-1025" width="90" height="30" as="geometry" />
        </mxCell>
        <mxCell id="QSI5xPWRK80PQD5p4qfQ-13" value="" style="strokeColor=#dddddd;shadow=1;strokeWidth=1;rounded=1;absoluteArcSize=1;arcSize=2;" parent="QSI5xPWRK80PQD5p4qfQ-1" vertex="1">
          <mxGeometry x="540" y="-995" width="130" height="60" as="geometry" />
        </mxCell>
        <mxCell id="QSI5xPWRK80PQD5p4qfQ-14" value="&lt;font color=&quot;#000000&quot;&gt;DB&lt;/font&gt;&lt;br&gt;Cloud SQL" style="editableCssRules=.*;html=1;fontColor=#999999;shape=image;verticalLabelPosition=middle;labelBackgroundColor=#ffffff;verticalAlign=middle;labelPosition=right;align=left;spacingLeft=20;part=1;points=[];imageAspect=0;image=data:image/svg+xml,PHN2ZyB4bWxucz0iaHR0cDovL3d3dy53My5vcmcvMjAwMC9zdmciIHhtbG5zOnY9Imh0dHBzOi8vdmVjdGEuaW8vbmFubyIgd2lkdGg9IjE0LjY1OTk5OTg0NzQxMjExIiBoZWlnaHQ9IjIwIiB2aWV3Qm94PSIwIDAgMTQuNjU5OTk5ODQ3NDEyMTEgMjAiPiYjeGE7CTxzdHlsZSB0eXBlPSJ0ZXh0L2NzcyI+JiN4YTsJLnN0MHtmaWxsOiM0Mjg1ZjQ7fSYjeGE7CS5zdDF7ZmlsbDojNjY5ZGY2O30mI3hhOwkuc3Qye2ZpbGw6I2FlY2JmYTt9JiN4YTsJPC9zdHlsZT4mI3hhOwk8c3R5bGU+JiN4YTsJCS5Ee2ZpbGwtcnVsZTpldmVub2RkfSYjeGE7CTwvc3R5bGU+JiN4YTsJPHBhdGggZD0iTTcuMzMgMTUuMzV2LTMuMDFMMCA4LjQ0djMuMDF6bTAgNC42NXYtMy4wMUwwIDEzLjA5djMuMDF6IiBjbGFzcz0ic3QyIEQiLz4mI3hhOwk8cGF0aCBkPSJNMTQuNjYgOC40NGwtNy4zMyAzLjl2My4wMWw3LjMzLTMuOXptMCA0LjY1bC03LjMzIDMuOVYyMGw3LjMzLTMuOXoiIGNsYXNzPSJzdDEgRCIvPiYjeGE7CTxwYXRoIGQ9Ik03LjMzIDB2My4wMWw3LjMzIDMuOVYzLjl6IiBjbGFzcz0ic3QwIEQiLz4mI3hhOwk8cGF0aCBkPSJNMCA2LjkxbDcuMzMtMy45VjBMMCAzLjl6IiBjbGFzcz0iRCBzdDEiLz4mI3hhOwk8cGF0aCBkPSJNNy4zMyAxMC43OVY3Ljc3TDAgMy44N3YzLjAyeiIgY2xhc3M9IkQgc3QyIi8+JiN4YTsJPHBhdGggZD0iTTE0LjY2IDMuODdsLTcuMzMgMy45djMuMDJsNy4zMy0zLjl6IiBjbGFzcz0iRCBzdDEiLz4mI3hhOzwvc3ZnPg==;" parent="QSI5xPWRK80PQD5p4qfQ-13" vertex="1">
          <mxGeometry width="22" height="30" relative="1" as="geometry">
            <mxPoint x="19" y="15" as="offset" />
          </mxGeometry>
        </mxCell>
        <mxCell id="QSI5xPWRK80PQD5p4qfQ-15" value="" style="group" parent="QSI5xPWRK80PQD5p4qfQ-1" vertex="1" connectable="0">
          <mxGeometry x="10" y="-840" width="180" height="60" as="geometry" />
        </mxCell>
        <mxCell id="QSI5xPWRK80PQD5p4qfQ-16" value="" style="strokeColor=#dddddd;shadow=1;strokeWidth=1;rounded=1;absoluteArcSize=1;arcSize=2;movable=1;resizable=1;rotatable=1;deletable=1;editable=1;locked=0;connectable=1;" parent="QSI5xPWRK80PQD5p4qfQ-15" vertex="1">
          <mxGeometry width="180" height="60" as="geometry" />
        </mxCell>
        <mxCell id="QSI5xPWRK80PQD5p4qfQ-17" value="" style="shape=image;verticalLabelPosition=bottom;labelBackgroundColor=default;verticalAlign=top;aspect=fixed;imageAspect=0;image=data:image/jpeg,/9j/4AAQSkZJRgABAQAAAQABAAD/2wCEAAoHCBIPEhIPDxASEg8PEhIRDw8PEhQRDw8PGBQZGRgUGSQcIC4zHB44HxgWJzgnKy8/Q0NDGiU9TjszTTE0NTEBDAwMBgYGEAYGEDEdFh0xMTExMTExMTExMTExMTExMTExMTExMTExMTExMTExMTExMTExMTExMTExMTExMTExMf/AABEIANUA7QMBIgACEQEDEQH/xAAcAAADAQADAQEAAAAAAAAAAAAAAQIDBAUGBwj/xABKEAABAgMGBAMFAggKCwAAAAABAAIDETEEIUFRYXEFEpHBBrHhBxOBodEiQiQyUmJzdLKzFBUjMzQ1coKS0xYlQ0VTVXWUlaLw/8QAFAEBAAAAAAAAAAAAAAAAAAAAAP/EABQRAQAAAAAAAAAAAAAAAAAAAAD/2gAMAwEAAhEDEQA/APm6oU+I7qJpg3fEd0FJinxHdRNUDcdx3QCoY7dwpmmDXbuEFIGO3cKZpg127hBSbeyiabT5IGqb2Kiapp8igabex8lE1TT5HyQNU3sfJRNU0+R8kAqbUbhRNU03jcIEqbUbhSm2o3CBJhJMIAoCCgIApJlJBTqncpIdU7lJA3fTyQh308kkHE5jmeqYcZVNRjus5qgbviO6CuY5nqqDjKpqMd1nNMG74jugvmOZ6phxvvNM9Qs5qmmu3cIK5jmeqYcb7zTPUKJpjHbuED5jmeqprjmaZqJqmnyQPmOZ6qmuOZocVnNNp8igrmOZ6qmuOZocdFnNU0+R8kFcxzPVNrjmaHHRZzVNPkfJBXMcz1VNcZi81GKzmqabxuEFBxzPVNrjMXmoxWc1TTeNwgfMcz1TDjmeqkFNqBlxzPVAccz1SKAgZccz1S5jmeqCkgtzjM3mpxS5jmeqTqncpIKc45nDHRHMcz1Sd9PJJBweY5qg4yriO6zVCnxHdBXMc0w4yriO6zVCh3HdBXMc1Qcb78O4UIbjt3CCuY5qmuN9+HcLNUMdu4QVzHNU1xzwWU1TTXZBXMc02vOeBWapp8igrnOabXnPA+SzmtLOx0RxZDa57gDNkNpe4XZNmgOY5ptec8D5LmN4HbXXjh9tIzFjtBH7CT+D2tl77Fa2CRvfZY7BTVqDic5zVNeZjcLEPEyJiYMiMQcirYbxuEFh5zVMcZi/ELIFU03jcIK5jmqa45rMFU2qCuY5phxzUJhBRcc0uY5oKSC3OMzfiUuY5odU7lJA3OOeXkjmOaTv/uiEHXc23QKg67CowGqzVCh3HdA+bboFQdcaVGA1UJih3HdA+bboFQdWlMhmFmqbjt3CCubboEw6tKZDMLOaYx27hBXNt0Cprq0pkFnNcvhdgjWyKyzWZhiRokw1guAGLnH7rRiT9EHH5vmQBcLyaBe48N+za22yUS0SskA3j3rOa0vboy7lxvcQR+SV9C8GeArPw0NjRQ2PbamM5v2IJlSED+LlzVN9AZD2qDx/CfZ3wyzAF1nFpeKvtcos9eWQaPg1ergwWw2hrGNY0Uaxoa0fALVCAQhCDg2/hVntQ5bTZ4UZuUaG18tpi5eL417LrHGm+yPfZYleX+egEzneHGY+DpDJfQkIPzh4i8LWzhh/CYQMImTbTC+1AcSZAEy+ydHAaTXTMdeKVGAX6jjQmxGlj2hzXAhzXAOa4GoINQvlHjb2b+75rVwxhLB9qLYxNxAqXQsx+Z0wag+Z823QKmuvw6BZNcqaUF823QJh23QKJpgoLLr8OgRzbdApNUINHOvNKnAJT26BJ1TuUIKcdsMBklPboEO+nkhB1nNt0CoOuNKjAarNMUO47oK5tugVB1xpUYDVZqhQ7jugrm26BAdWlMhmFCoGu3cIHzbdAmHVpTIZhQmDXbuEG9ks7474cGC0vixXBkNjQOZzjQabmkiV+hfBHhOFwqBy3PtUUA2mOB+M78luTBgPjivJ+x3wyIbDxSM37cYOh2QO+7BnJ8TdxEgch+cvqiAQhCAQhCAQhCAQhCAQhCD5N7T/AAYG8/FLGwACb7bBaBKVTHbl+cP735U/l7XXinQL9TOaCCCAQRIg3gjJfnrx34c/iu2FjBKzR5xbNk1s/twv7pIGzm6oPPc23QJtdt0CiaoILLr8OgRzbdApJQg0c680qcAlzbdApdU7lCDRztsMBkjm26BS76eSSDrObQdFQddQVHdZqhQ7jugrm0HRUHXGlR3WSoUO47oK5tuiYdW4Uy1ChNuO3cIK5tAudwPhzrbaYNkZc60PawuEpsZOb3fBgc74Lrpr6L7FLB723RrSRMWWByt0iRXSB/wsiD+8g+2WWzsgw2QobQ2HCa2HDa2jWNADWj4ALdC6vhvHbNa4logQInNGsb/d2iHyuaWOmRiLxMG8ZIO0QhcTiNuh2WFEtEZ3LCgsdEiOALi1jRMmQvKDloXnR4vsxv8AdW6Rp/q62/5aP9L7N/wrf/422/5aD0SFwLPxKFEjRbO1x99Z+QxGOaWkMeJteJj7TTIiYxBC56AXAs0b37jEb/MtJbCOEUi5z9W1AzvN4LSuq49b+dz7JDMTkhsEXiESA18SLDgOP2YLAwE+8fIj7N4bzOuJYSm+LbKxt0G2thsb/wAutjWNY0fo7gAEHpULzUHxnZXtD2Mtr2OaHNezh9scx7SJhwIh3iWK7qwWxtohiKwPa105CNDfBiCRIM2vAIpiEHLXjPadwb+F8PiRGicWx/hEMymS1o/lG3VmzmMs2tXs1D2BwLXCYIIINCDUIPysHbKg7Za8UsZs1oj2Yz/B40SEJ1LWOLWu+IAPxWDSgvm2RzbKSb00FudeaVKObQKXVO5Qg0c7bDyS5tlLvp5IQdZPQfP6pg3UFRnrqoVCh3HdA56D5/VUDcbhUZ66rNUKHcd0DnoPn9U2mtwprmNVCbTXbuEDnoPmvs/sMs4FmtcWQm+0thk5hkJpH7w9V8WX3D2Gn8AtIytrz8PcQfog+lr5xwuwxOa32+yM5rZY+K20e7Bl/CrI73Ri2c6kNDmzo5rcCV9HXl/BH+8/+rWzyhoO74fbIdqhQ7RBdzQozA9hzaRQjA4EGkiF1fj3+q+Ifqkb9grNn+rrVKlh4hFmPybLxB33dGRDf/bn+WFp49/qviH6pG/YKDvLN+I3+y3yWq8xB8MvLWn+NeJibW3CNBkLv0S3s/h17HteeJcReGOa4siRYJhvkZ8rgIYmDQ3oI8TcMiEw+IWJs7dYg7kZPlba7O6RiWZ51lNpNHAHNTa/FEM2WDaLIPfRra4QrHANzn2gzBa8D8UNk4vOAadF3lttcOzw3x4zgyFCa573mjWgTJXzrh0N9htA45aIAhWO3veHwXAtfwtsUsEO0OE5AvLR7yUpFzayKD3PAOF/wOCGOeYsd7jFtNocAHWi0OlzPIFBcABgGtGC5HF/6NaP0MX9grmLh8X/AKNaP0MX9goOD4M/qzh36jZP3DF3a6TwZ/VnDv1GyfuGLu0AhCEH539pUH3fFrWJCT3Qoja/egMn/wCwcvNNdoPmvW+1hwPFY0vuw4AO/ID5ELx7Sg1JvoPmieg+ak1QgtxvNwqc0T0HzSdU7lJBo46DDPJKeg+aD9PJJB1nNoPn9VQdcbhUZ66rNUKHcd0DnoPn9UwbjcKjPVQqFDuO6Bz0Hz+qbTW4U1zChU3HbuECnoPmvsPsJtc2W6z4tiQYw152uaf3beq+Or2/si4oLNxNjHGTLXDdZzkH3PYT8Wco/tIP0MvM+DWFv8Y8zXN5uKWtzeYEczTyScJ1Gq9MhBxOIWJlphRIEYc0OK3lcKGWBBFCDIgihAK8nxu0xX8M4jYY8322zWV7SWi+1QXNcIVoaB+VyuBAo5rhSRPt11nFLE55ZHgyFps/N7udwiw3S54Djg13K2/Ata6+UiHVQvG1ga1oL7RMNAP4Bbagfolp/pvYPy7R/wBhbv8AKXeWWOIrGxGzk4UNzmmha4YOBBBBoQQuQg8laoLuKWv3T2OHDeHva6JMENt1ubeGS+9CZcTgXSF/KvTWmzsjMfCiND4cRpZEY4Ta9jhItOkit0IPK+G3RbHEdwq0F72Q2mJw+0uBIi2ScvcvdT3jKatkZVXfcWBNnjgCZMGIABUnkK5iEHS+D2FvDrA1wLXNsdla4OBDmuEFoIINCp4vCjx/dwmQCGfwmzxHRjEZJjIFohxCSJz+01hAlO83gVXeIQeX8JcJfZDFa6CIUNzYci4wnR4kYF/O5zochEbIsk9zQ8/a5p3L1CFxOJ25llgRbRE/EgQ3xX58rWlxA1uQfnnx9ahG4pbniRAjCGDrCYyGR1YV0DToPmpiRnRHviPM3xHue85ve4ucepKGoNCb6D5pz0HzUGvxTQaON5uFTmlPQfNJ1TuUkGjjoMM8kT0HzUu+nkhB1kxl80wRI3YjHdZqhQ7jugqYy+aoESN2Ix3WaYodx3QVMZfNNpF92GeoUJtx27hBUxl81cCO6G5sSGSyJDc18Nwq17XBzXfAgFYpjHbuEH6n8NcZZxGyQLZDkPesBe0f7OKLns+DgR0K7dfAPZP4tFgtBslofy2S2OEnOubBtNzWuOTXABpOjTcAV9/QCEIQcZsHkeXN/Ffe9uT5fjDcAA7A5z5KEIBCEIBCEIBCEIBfMfbNx8QoEPhzHfylpIiRwDe2zsdNoOXM8D4Mcve8a4rCsECJao7uWHCbMyq51GtbmSZADVfmjjnF4nELTEtcf8eM+YaDNsNguaxugEhrecUHDBGXzVNIy+ahNqDQkTp80TGSnEpoLcRM3YlExl81LqncoQaOIyyx0SmMvmpd9PJCDrJjI9fRUCJG41GO+izTFDuO6CpjI9fRUCJG41GO+izVCh3HdBUxkevomCL7jTPUaLNUMdu4QOYyPX0VAi+40z1GizVNx27hAGWR6+i+xezD2hCIGcN4g+UQSbZLS83RBQQXk0dg040rLm+OIGOyD9gIXwnwR7UolkDbNxHmj2cSbDtA+1HgiknT/nG/MfnXBfaOGcTgWyGI1mjMiwnUewzE8jkdDeg5yEIQCEIQCEIQC4lvtkOzQ3R472w4UMcz3vMmtH1y3XTeKfGNj4W0iPF5o8pss0KTo7p0JH3W/nOkN6L4V4s8X2ri8RpjEMgMdODZWEmGw4Ocfvvl946yAmUHL8e+M38XjAMDmWKA4+4hEyL3U988flSmAMATmZ+XZKYr19FmFbahBUxkevoqBGR6+ihMILJGR6+iJjI9fRSalCDRxEzWpx9EpjI9fRS6p3KEGjiMjhjpsiYyPX0Uu+nkhB1cxkevoqBEjcajHfRQqFDuO6BzGR6+ioESNxqMd9FmmKHcd0FTGR6+ippF9xpnqNFmqbjt3CBzGR6+ippF9xpnqNFmm3HbuEFTGR6+ibZX3GmfooVNx2QF2R6+i5vCuKR7HE97ZY0SDExdDfIOAwcJScNCCuCm3sfJB9P4L7Y7TDAZbbOy0ASBiwne5iyxJEi1x25V7Gwe1vhcUfyro9nOIiwXOHwMPmX5+Tb2Pkg/SsL2icIeJi3wxo9sRh6OaFnH9pPB2VtzXHKHCjP/AGWGS/Nybex8kH3LiXtisUOYs0C0R3ChcGwIRO5JI/wrw/HPajxG2TZDc2yQnXctnn74tOBe68HVoavCqmVG4QU53MS5xcXOJc5znTc5xvLiTU6pslMXGox9FITZUbhBQlkevoqaRMXHr6LMKm1G6C5jI9fRNpGR6+ihMILJEzcevoiYyPX0Ump3QgtxEzcanH0RMa9fRJ1TuUkGjiMjhjpslMZHr6JO+nkkg627X5JiUjWoy1WaoUO48igq7XoqEpGtRhus1Qodx3QO7X5KmyvrTuFmqbjt3CB3aqmyvrTuFCbcdu4QO7VU2V9aLNU3HZA7tVTZa0Pks1Tex8kDu1VNlrQ+SzVN7HyQO7X5Kmy1ofJQm3sfJBV2qbJTFahQqZUbhAxLVUyUxWoWYVsqNwgLtVTZTFVATbUboLu1TEtVBQEGhlM1qi7VQandNBo6UzWpSu1UuqdyhBo6WuHki7VS76eSSDrLsz0H1VCUjeajAZHVZpih3HkUF3ZnoPqqEpG81GA11WSoUO47oKuzPQfVNsr7zTLUaqE2mu3cIKuzPT1VNlfeaZajVZptx27hBV2Z6eqpsr7zQ4eqhNuOxQO7M9PVU2WZocNN1Cbex8kFXZnp6ptlmaHDTdZqm9j5FBV2Z6eqpsszQ4abrNUzsfJA7sz09VbJTF5qMPVZKmVG4QUJZnp6qmSmLzUYeqzVMqNwgd2Z6eqbZTF5rl6qAqbUboHdmenqmJZnp6qSgILMpm81y9UXZnp6qTU7oQaOlM3mpw9UXZnp6qXVO5SQaOlmcMNN0XZnp6qXfTyQg6tUKHcd0IQJUKHcd0IQJU3HbuEIQCpuO3cIQgSpuOyEIBNvY+SEIBNvY+SEIBNvY+SEIBUyo3CEIEqZUbhCEAE21G6EIGUwhCANUIQgbqncoQhBTvp5JIQg/9k=;" parent="QSI5xPWRK80PQD5p4qfQ-15" vertex="1">
          <mxGeometry x="10" y="10" width="44.5" height="40" as="geometry" />
        </mxCell>
        <mxCell id="QSI5xPWRK80PQD5p4qfQ-18" value="" style="shape=image;verticalLabelPosition=bottom;labelBackgroundColor=default;verticalAlign=top;aspect=fixed;imageAspect=0;image=data:image/png,iVBORw0KGgoAAAANSUhEUgAAAOEAAADhCAMAAAAJbSJIAAAAw1BMVEUrLjr///+f6vmk8v+j8P+h7fyl9P8pKzclIi8oKDQhGignJjMkIC0fFSQeEiIAABkbCRweIjAiJjMAABwjHSsfFCMXGyuc5fQSFyggIzEACyGT1+UaBRqP0d+Z4O+Ly9mAgYZdgo5+tsO3uLqam5/z8/NCVmFkjZlzdHoKESSsrbBKY25unapplaFERk94rboxOETKy805O0aOj5NmZ25QbXh7sb6Fwc9TVV3h4eLW1tg4RVBYeobCw8V8fYJEWWQPAABzVv/5AAAZgUlEQVR4nMVdiXbiOBY1eJEX7JidsAaSQAgQSAIhFKQz//9VIz3ZYMC2ZEtUvXN6TndNgX3R2zcphZvT8+798fXz4WX9/fahEPp4+16/PHy+Pr7vnm//eOWWX777eXp5a7enrUa5XKkghBRK+N8qlXK50Zq2228vTz+7W77ErRDuHj/fqtNWuRKiSiJUKbem1beHx1vBvAXC3etLo90os7Cd4SzjT7y83gKldIQ/D5V2o5IB3IkqjXbl4Uf2C0lF+Py4rrbus5zd1Vnet6rrR6n6RyJCDC/n4V0eJQYp77VkIfzzX7slA14AstX+74+kN5OD8PWjfS8NHqX79serlHeTgHD32W6IyF4SoUb7QYJyFUb4Z31XvgE8SuW7tTCzCiL8812VJ31xVKl+C2IUQvjnu31bfICxLYZRAOFufePzO2KsrgXkMTfC54e7v4MPMN495PYC8iJ8nd5Ov8RReZrXduRD+Oej9VfxEWp95BPHXAj/q97C/rEIVf/7Swh/yn+XQU9UbuSIPLIjfGn/iwOkhNovN0f4/s8OkFK5/H5bhJ93/+4AKaG7zxsifH5r/GN8hBpvmWxjFoTv079n49OoMs3CqRkQPt0Jv5tl1molR5zR755ugXA9FXwtVLNni+VyflDqlijE6Vo6wucPUR1aUpa6qmm6pqqDX08UYvmDVxg5Ee6Ec0z+UNOKAenGyBZl1UqDM97gQ/gu7Kb5S6MYIa0jLI2oyqdvuBA+CusYew4AdRUTHKXeqYt+p3LHlXPkQfgqDND5BYDq9rBfzZa6Tv59aYtD5ImoOBA+VYVfxe8QUMWZ7yDk2GhAjlHdi1uNKofVYCN8agu/iDUjR6jtTfqfyO9hwPpXTfiLlTbbhWMilABQqX1hRNriyJbWSiVHKmwyFB6ILIQyACpen5xZRO68Lf4DdSxs+DG1WYzKQPgqLoOYbCx3+iCiPM0J/hP14Mj48ipD3aQjFDcTQA4WQ30UOUNng9lUG4prU0IMo5GK8F0OQKWG8ejbCB5zSE61M/OlRJt3qaY/DeFOCoti8ppYrzS7pz+wlzo4b1tkyvj+apoDl4LwWVpFyQbFsjmJnR06qMWNuGtDqlQpbngKwg9p8a4zJNahf/S2u19HJ9yYd1M/ykeVjzwI1xJTTnBmes8sEYxOd67C+WnUk3MlsEo5OV5MRPgkGvBGyYRD1JsT5Hv1TQ/+Y+CPDBpmmBIgThPNYhJCWWo0IH8LB6ap/Y6ugpYprix/Az64Lh5JKSkKNQHhs8wTJGT3tFC5wP9qY6x3Squ+BhCF42FM0wRtk4DwTXZWDbkjQz8GwGqfeuGWDWGGNvDFn1B5y4Lw8wZ5UX/TMTSdkKbP3cAlRT6NpEYSIDbinfBYhJKFMCDHn80Hnc7g61CLxE0UojGR4MHFi2IswkxNdxnIqrl1z62dOdzIg+jY+BV3w9E9L8KXv1p8QVaTQGxKsBnluMpUDMIfGSFhBnL2xD5qWwmi2I6pL8YgvBWPJlJtSEy/cRD3wlGZB+F/f79A6I/AWFoS+PS6EH6F8I+skCkDoRIJr7SRhMRN9aqd4Qrhx78ogTqQjDN+xRM36CrKuET4+vfbSAj5I5Kr6khQNq3LtM0FQun+KCchBHlwCcrmyj+9QPjwr/oQaiT7VuxLkMTyQxrC3U3cNS7ySU5Vm0g4xLtdCsL1vyvUOwdi95sS0jaVdTLCXJYCWY5plgiZpuPkt2ndTvQQkQNfluvbzi3GGcLvbEeIzJrrO/vNYbKYE1pMDpvxyvVcO083AmSJi32qTq3VcHjYzPbI87J/WeU7CeGfDA4pcmx/P1wOmlDzDEnV8H/0B1+Lw97LIFEW2EE4RJrqR3udfplR7Gznh5VfyxR5tP8kIOQ/Qsd1hqOmqumnsD1COMbVjOKhxPdVJdcbz1wlkES9Rw6xttSiX6b2cUxp84M8O8QIQm4pNP3NVlVjwUXIWDGZyzJdG0fFumr0SEzsE9/NIBWpCMIjzNHG52aLqCRGEHIqUtOd9E/w9ICdgDTSTRKeK8sHs2r+eDHAHwFbPySJqYUWVHDQqglfFmUSXe1PXE6MUXV6QshnC1F32NSCx5LWmM52uRhuZmNCM6xz5l+DDm2b6bspX+PY3mbZV8NvKqpEhyIL0lIkFEalzeEwXCxHvaahnZ7XHPp8rmvEJp4QcrkztT2kc+EnLW4nv7Zn14hatyyE/3Ecs2S7nrffLEbLZCa1MLxRMcoHahPsgk28U5UaDPiymu36ymax1cO/rHbGXAmd8mcMQh5F6g/p74nhLWe+bSb8oNiY2bUEgKjU/f06wcPojM7XkBoE6/eoayIfsEquu/nSwycvuAod7WuErxwJRP/LCH7JoZtBtUXIqa/mJynWNaO/PCj4pwofQFw3I6ZJw7HdYYd+jq/Q0Xi9QsgRF3pBar5/4NdqUUIlooS1IzxtO9ljSxd5MOgabR5rZ8zupg8SonVK7Hc9xYkhQg5rH9QejCWvRjsny0aLZnh8WLBGh5J7mV9DpElD7yeEiY6/oDWPTpIIROho9UOE/zHnB/0lrYnNcjnHjrcfha17WNduD3Ysm3uk08ZIbNKw94SNuaoA9/9dIGQeYelAZFDvr/IcoOPPBmHZQjN6Q+wTJTxlksymhKwSVHjUeZopotQ+R/jISl6gFVSJ+laOVIrjb3oBPqKE935y8peyaUo2A3m0CjBjKrrW4xlCpj/jb+EVV9kBOt1DoAWLutE7uOkyRNk0xeFDNnHQdXY2IPRrKMJnlksaJMNmmVnU6W5CfJo6Gvusn7401xihvrUCUZwwHfvqcwThI8sY+gMSni6zplEsf9YL8enzlcvmAGt82XtzRTUomReZkth4jCBkMam1BzWTMRRF7j7UL2pzUeNQ8UoQYKQ39dFswJDFTwGbUoQsJoVoRptna5esKV8BPq058fiixdA3TY1LIBug95gMVT0h/GFpUvhhVSXLETreQteC85tkCPih90ZbpP4g1Lljxp+tnyPCB4a5R6T+pQ8ySCHyAxcLy9/CzqKf0Iq0+Q1SpYytjoDuH44IWUtkoFkySy6zttoaQSiwdHj5MyC/Tz6X+mtSdTRixVGoEiLcsRwa6PHlb3i1/EkQ6hjbVeZGEiqI6Q/zwDtl8lR7FyBkBk4u2Aq2oxS84rhDGdTo/HrZs4rQmclgGPpCTIQQQhGELyyHxutzeRFAljenFlArDrt5qmVU6NNZkJ4zU9VUXgKEzNjXLzKF//js4AB1Y2nmrEH4OpMFa0TVcIhNgyJkiqHikxzYlgMh6oYH2BnX8+b3gQXVVPcOImV1xkRIBFHhcNkUn+lJBQ9e0TyVri44c2JxBO5F+uubnAiJ46bwJNmAb9hc6h+oClV7e5EOJ2rzU1UNGEQOhKSWiBG+MdkJNA1LOVvuyAizYUL1eGrtUidq6DGzx4rQGyBkJ/PrJGhrpmcOSvs+7fntCB0gPE5jsQzVpRxeZJUg3LFL99CJbqQW87yAQ42lJ9xQAZ1uqT8oxMlFjr6G6Q4jZLrdoXJOYXsUDFDqxZmESjz9QdNOyAODwqHcsfOtFJ7Y2Xyoe6X4+44zoBw6QDIGfZh6hMcpoFR+wgiZHk34jYnmwtw3KYfOu1LajRzw24bJPxaPY0cJezUKhyplBN72DERQ1ze8niuDrJmamlLkcs4pYWWqcFVk6FfG840/DIYKcmVSY19rdTkJdkEeOPZcDVTtgvLMg5Aa4WWcierSGWZjy5Fm4iUv3cOAM+YSQ4zwWeEwFqRcBs0uMb+aP1IDEeR5HifBRGZyLGPDSCrf9OJ0p7xzteq5l7NZlJC3BYDqQcbE6+lpxPdODvNtSJjypQ5a7wrb7ybkHOLCC0TnRHT9V8LQcoRA7BMNIh1e5GNS7Hsrr3y9ejCbdRFzolIHADb3snRMQNTtHCcghNH3a36Kp/Kr8smHkGZMz7YEIBPmCPS+Ik/HUKLB0Sb+a6HAkFhjvKTyp/LA12OCIOutRXxTfIIgD52kan5+ApOfNAhNCwwL3r6TB4XDpQGCAXNtfjxEWgMqaj0ZU1kX5GySfRYLFlDovCnKyouy5nxBawyHeBR/r0dnsnInK9Ke9Zvs1NAj5C4woLXyzfuG9BC/3PBBFGCOdCHHa+0THQxnA0fI3ZaJvhUetxSIHmLQCtIFQ6/1MgJ0bLdus8d/aCU4NsqnrcT8NSL0pnxwv543OnZHenSSN+NkpGMPR73OdrFimjIzyS2rTcDDyFAo4McHpXxdB0G0h7RrgaOvJULeoanC+KG6ZB098VriojWkQJsfu/6bk5zf7ZYMt5ozOreczQ568+MeJa3H4DIvIQUN3QRSxjISyLJtKyykF/V9JoDmIbIoijWoRuJRvXeFkH6HjFHFdHLBEKrZuhaQddZxa6RHBjR9edmahBT4db6kevkxRAfNjIyLScAROxGjRh2PsDuAUcxs0p9N1xCiw4LaMqMsQEAUPcTUZCcJEK9S0DboUYPT5Q7pg98eUrL2dCFC1oCXZnpOlJ6SJxnTS4TOWM3Bo9gecvs0wbOhda6ZeZ7Cv2h81xIih+Ap1wiR2YReqIwJdezT8PqllOrQRK9m12b0l4mcYWqmLIZLqRCq44xPxn4pb2wBRDfLqYvslQkI26OqJjXzeK1pPOj9VDOP7ePYgjM+pOTC0q5ejqwT9ZhPANOTEFfFLpPqt+zz3jg+5Izxgew5ZC0gl4EyiiJsoTsxaXpljFr8yBnadENI9pQzjvE58zSEIKgpqkPiFZr74T6Td4hWkekQY5j+2avGAQSOcI7ez/IrZ66NPheSfGAorJmhZTT6zr4ZdkEbE0Yndf0yJexuVS1H7yfk2vjypfCKIEqUv8CAG5tMSUTLhCW0mrrdsz53tf4Mm/vlOE9E0Xrny3kDBcEnPJe6KOosG6PW7NlkclDY+f+rFXZYLEq5El7THV/dAh4BjatN+lhnRnPd2SDiz5kmh4aiMX5sFiMrtZ/5ak+EYK2cGvat1qj2zwyRi6BXIa28xk9tzvqhEhyh3jmaQjsoqs3kJvSBgEO4U6JpBPVDTqcGpDCapXUn9BQ3cvY7RolW1ZltzhwENWCOOr4Sdh6f5Q+8AOJBUun3RLSfNWOYFEtQx+foxVDCbOn5zxpANCay8ya8LU9sgl4MvhIp3Yt7YahdKotyy6MKKQPpcjYp034ajp6o49jcpVZxaXpJHclZRBoS3ZUpQ5VWOfvagppdzOijvaEjiT1LZv4LusxkLFIO+to4BoChtnY5vgpUGtPdh81sfng6EdMrY2l72JvI4XvToblYAxW0C+naRl6SDzYrc/SzMinoL2X3CAeNCvGib1kdLdA3koSRtmDJcNqCHmF2nzdtcEkqLB8bMgaOHGGkBVIZLk2Dt1c/6GlNZJuga0hv8g3Ls0jatu9jrz5z3oJ2yqV4UfUNbW1TFzI4lZpDCRvbj/MW7JmZJav53ww6hI2BIs5cdF5EkhjyzT1RC5zKNZZNhVEviutUmHySsBTrNPfEnF1zOfq8FX9CRy2Mr3zrFk4vZhlyjEVkdo3lfMcWSq6oNqacqjXFWqGD9lJxLo3MH7JcU+8yfZnwajadR8DHmG3r0TlJU6WRGVLWHDAkaAf/c5ltFMH+anyMm/y+ODRXpkQWTs113Rq7o+NsDpjhuIHoNweDr8mKsVfEVAbBZN52lZfNYBghqfcS2eZwOegNvoaI1QhyNsudPo/vkDICabLU2blO1B3SY9S1BXP4Pp5qKWOyDlpqdKG0qo4Ybddn8/ipbFr7bUa3NbEi+tJqS6VR6+e6v4KmoeK9UntTPBXLNe2QphrOdyqk7cUobc7XehlzBkTkH+h76MZ2n72vj07exSqaIL93epW06sDFXozkrCktLpN9OU2dTi8bE5aEmc7XadA5qzjSOCZuPpSuriDLX5paYHtT1oFe7DZJ3k8DJUMcN2xqvjdeqhylMYWEG+EscNZhdVp3KsbFMciBb1S3M9uv/9IOej1xUvZqP03SjiEwTkV12CVcY3lj+Not26Jb/rCYZ+FAsA0rtqcNqpfqAYY3LX8GzZGJAc/VjqGkPVFgKNRJCKkEPBu3q+qKSs4yXPrRHHIvjaCNN7FxDG01P4SQasCzasKyzes9UQkhFLRcRnL5irvkjk6Ru9+eFmPUORt9aN0ubt0X5KQjbS6we1hNGI+K2fUVr2to9jnyizKGvM4JRZa3NBcml16taQnpBJomjuhYOjqTkOyI2ddWiC3oX4+jdjPlwcgCnvAc9eWqzvQBIIMR+9rXc6P15BHz2J17sXsT6b6IqMKKa1dKfeXuoX9cMrSd+QxmpQ+MK1nQucvo4aasCYjdmxjr11xH990iV5wRIcc/LYpSOxPHTu0VIlVKPU4Irvco2IkCE7/7MnZ/6dVWE9ZakdgTii770rTRzE9eNwTnEst5V3JIVU+sHCbsL43bQUuT3f2TAoNm78TxTcfcx08nOP7suE9QV/vzfRK3mgtDjd98Cv5qtFupu00aYUvaQRtr9emQ0bG4VIN1xkk7N7CaMDoJbZVWfb88LunEf22BQcYBsWeTfbw+omX2o1fswnrs2NGSatIe4bhDpP0JGCKOOBHmNuhNGiXURD0chCREBQoJ7UqTULGStZed+a9vX/ctWEmxrQfulbHoOuRVuvBisU9L3gUdK4n0klS1M9zbyobm07QkZ9BjXb5p+r+j40HiaLM5Girn2y+TCJX8YSfYSTFc2atDEGnHfTZln3ecOkX7IKAle4IZDj3NOqZmWCy7NBwYx+26ZD/r8rDy05d2WyV/P4/szSREXyVuuWDaTvZYm2j+Ht8nCMoS6/aBY8Uwlqa3WnQiIDHK5naxWfl1u2ReuJnIMWt1dzbHfz/4y2evcojT6al79WNrieY+iISoZ5I2kw5D1uzdP8j094ueGvnlYAN4bzQfzvaO53t1r173MJn7zWTZ08K/ic1pJxLjN2M7XdLvRoi/38LyJmRtM0nT6EsrzemGAIcr1YlK3mq41aMo6eZs1dCb/U6n1+t0cMitRhZeYysz9N1FM3iV4rwUKw6M+y0S7ijBGmLxNRrNN4kLkIP3hjnMIqdfbtrebD7Q1HMpoFh1/Zwhse4dwHLfkjejr1KP/x1Zd5QkxomWWbPt+B8tSh5sQOLf7GaV6rXZYttUtYQN9oGkqr3F3nPCz9j4VZLWUDPvmRG8K4jqGt4h3eAzJdtfbRajXtFQ1SBXGB4kadbUe8uD4nGGlxx3BQne9+R3mAYjjhCG6Xmr2WGxHG17nT6hTm8wWk42e9fjsphAPPc9Cd7ZFTT45euSIpeBYGFwQY96Xt21a9kut+C7s0vw3jXqPcq49CcHcd67JnZ3Hj3EbJIoi3jvzisU7kX4FIocHGt+L6jkZck5xhL//Ydid1jS4Q8945U67kLTh4JF0Qx3WIrdQwrqNOOMGcwBcKVhkynLPaRid8laOa6JcyHxLNQzm+0uWbH716DblncbKBAdiSsKFbYz3gcsJIqI7hTn3/4djMQJNXZnvdNZ7F7uEp1n5Z3iQSakEIWuPc5+L7fY3eo+nfrlXI/dhYszEnMjPJTnbnUcZeTXNpRPY1tur6m+gBNnjLOlUuUqouBC+NzI/6PS3QDaiKPFnU7fCF2WixoJWoaBsLATCKT8LzgYVs0fy+wvpD37Ita+uktBkYZQSKHSmVFjwYBojmmLUbYVFOeUqEbZCAuP+SEiBD0qjFmMEgVobASE8O4xFUM6wsJrfkZ1aKJVXaY01bp0mEHoZvXqZWImG8LCU/5g0RnTVsXE9m/UXdCZm4VAL2M70RByIhSBaIazGLPYjTslNAiGigTUKBMgG6EYxGLQVGtdZSGd7jD4Pye3PEEehIUnAVlcBU21+tyJdg6jEqkL0zyoyF7XKhsgD8LCa36NatlhG5822tTdmompZnf34fVyWl9kmuiOoWS4EYoYjeOFguSqtcFyMRxO5iQBTP/IGKUW9VkA081EFoSF92p+B64U3ldCCxPa8UpK0p4pIIKommroMyIs7BoCbrg/C/sUoql60u8mEPJWGmmuWnaEhecPgWDK8Wej81tTyfVyQrm18keKs50LIY4XRRIblm0evjr0ullVbW4nmW5EvqZpcjyYH2HhSezidcf2SvvN4bAZk2s5xcaj7jisRA6Ehfep6NXryHJELicPqDLl0zHZERae30TyqLKo8cYrgtkRFgqfd7fYV5qF0F184lcWwsKfe6HyojCV77NwaB6EhcKLgPUXJdSOqy7JRlj4Kf+rYyyXY+qDN0BYKPz3T6QRVa9L2LdCWPjzwb1dShq1Pq6aEG6IEEdU07/LquUpT6QkE2Hh+eFO1P7zU+XuIZMNlIIQxxvr6t/BWKmuOeMIyQixOH63b4+xUv3OJ4AyEBKMNz5HUXzCCDHG9d3tdE75bi2ITwJCrHM+2wJVqmRCjfangPxJRIjp9aPNWFqQme7bH3ntwznJQYiZ9WHakieRlVb7P2H2DEgWQkyP66pAvioCr1Fdc+UJ+UgiQiyRGGRLqGUM3bcwvNzWPY6kIiT081Bp5zzKSqNdecgRPaSTdISYdq8vjXYjU5sqKuNPvLxKUJ1XdAuEhHaPn9/VaavMWn2joEq5Na2+PTzeAh2hWyEE2v08vby129NWo1yuVNDxchj8b5VKudxoTdvtt5enn1uBA7opQkrPu/fH18+Hl/X3G72m4OPte/3y8Pn6+L6TqlPi6f+/xxT5bdHgLAAAAABJRU5ErkJggg==;" parent="QSI5xPWRK80PQD5p4qfQ-15" vertex="1">
          <mxGeometry x="80" y="10" width="40" height="40" as="geometry" />
        </mxCell>
        <mxCell id="QSI5xPWRK80PQD5p4qfQ-19" value="Client&lt;br&gt;Next.js + Electron&amp;nbsp;" style="text;html=1;strokeColor=none;fillColor=none;align=left;verticalAlign=middle;whiteSpace=wrap;rounded=0;" parent="QSI5xPWRK80PQD5p4qfQ-1" vertex="1">
          <mxGeometry x="10" y="-870" width="100" height="30" as="geometry" />
        </mxCell>
        <mxCell id="QSI5xPWRK80PQD5p4qfQ-20" value="" style="endArrow=classic;startArrow=classic;html=1;rounded=0;entryX=0;entryY=0.5;entryDx=0;entryDy=0;exitX=1;exitY=0.5;exitDx=0;exitDy=0;" parent="QSI5xPWRK80PQD5p4qfQ-1" source="QSI5xPWRK80PQD5p4qfQ-16" target="QSI5xPWRK80PQD5p4qfQ-5" edge="1">
          <mxGeometry width="50" height="50" relative="1" as="geometry">
            <mxPoint x="170" y="-900" as="sourcePoint" />
            <mxPoint x="220" y="-950" as="targetPoint" />
          </mxGeometry>
        </mxCell>
        <mxCell id="QSI5xPWRK80PQD5p4qfQ-21" value="JSON(JWT)" style="text;html=1;strokeColor=none;fillColor=none;align=center;verticalAlign=middle;whiteSpace=wrap;rounded=0;" parent="QSI5xPWRK80PQD5p4qfQ-1" vertex="1">
          <mxGeometry x="160" y="-935" width="90" height="30" as="geometry" />
        </mxCell>
        <mxCell id="QSI5xPWRK80PQD5p4qfQ-22" value="" style="endArrow=classic;startArrow=classic;html=1;rounded=0;entryX=0;entryY=0.5;entryDx=0;entryDy=0;" parent="QSI5xPWRK80PQD5p4qfQ-1" target="QSI5xPWRK80PQD5p4qfQ-7" edge="1">
          <mxGeometry width="50" height="50" relative="1" as="geometry">
            <mxPoint x="190" y="-810" as="sourcePoint" />
            <mxPoint x="270" y="-955" as="targetPoint" />
          </mxGeometry>
        </mxCell>
        <mxCell id="QSI5xPWRK80PQD5p4qfQ-23" value="" style="endArrow=classic;startArrow=classic;html=1;rounded=0;entryX=-0.031;entryY=0.4;entryDx=0;entryDy=0;entryPerimeter=0;exitX=1;exitY=0.5;exitDx=0;exitDy=0;" parent="QSI5xPWRK80PQD5p4qfQ-1" source="QSI5xPWRK80PQD5p4qfQ-16" target="QSI5xPWRK80PQD5p4qfQ-9" edge="1">
          <mxGeometry width="50" height="50" relative="1" as="geometry">
            <mxPoint x="200" y="-800" as="sourcePoint" />
            <mxPoint x="270" y="-825" as="targetPoint" />
          </mxGeometry>
        </mxCell>
        <mxCell id="QSI5xPWRK80PQD5p4qfQ-24" value="" style="endArrow=classic;startArrow=classic;html=1;rounded=0;entryX=0;entryY=0.5;entryDx=0;entryDy=0;" parent="QSI5xPWRK80PQD5p4qfQ-1" target="QSI5xPWRK80PQD5p4qfQ-3" edge="1">
          <mxGeometry width="50" height="50" relative="1" as="geometry">
            <mxPoint x="190" y="-810" as="sourcePoint" />
            <mxPoint x="264" y="-731" as="targetPoint" />
          </mxGeometry>
        </mxCell>
        <mxCell id="QSI5xPWRK80PQD5p4qfQ-25" value="Token - WorkspaceID" style="text;html=1;strokeColor=none;fillColor=none;align=left;verticalAlign=middle;whiteSpace=wrap;rounded=0;" parent="QSI5xPWRK80PQD5p4qfQ-1" vertex="1">
          <mxGeometry x="540" y="-1025" width="150" height="30" as="geometry" />
        </mxCell>
        <mxCell id="QSI5xPWRK80PQD5p4qfQ-26" value="TOKEN付けて通信するだけ" style="text;html=1;strokeColor=none;fillColor=none;align=left;verticalAlign=middle;whiteSpace=wrap;rounded=0;" parent="QSI5xPWRK80PQD5p4qfQ-1" vertex="1">
          <mxGeometry x="80" y="-890" width="90" height="30" as="geometry" />
        </mxCell>
        <mxCell id="QSI5xPWRK80PQD5p4qfQ-27" value="node" style="text;html=1;strokeColor=none;fillColor=none;align=left;verticalAlign=middle;whiteSpace=wrap;rounded=0;" parent="QSI5xPWRK80PQD5p4qfQ-1" vertex="1">
          <mxGeometry x="260" y="-895" width="90" height="30" as="geometry" />
        </mxCell>
      </root>
    </mxGraphModel>
  </diagram>
</mxfile>
